<svg width="127" height="69" viewBox="0 0 127 69" fill="none" xmlns="http://www.w3.org/2000/svg">
<rect width="126.5" height="69" rx="4" fill="white"/>
<path fill-rule="evenodd" clip-rule="evenodd" d="M88.6344 33.2797C88.2634 33.669 87.9691 34.0883 88.0858 34.6473C88.1114 34.7735 88.1914 34.8923 88.209 35.0185C88.2202 35.0891 88.2138 35.1568 88.1914 35.2244C88.169 35.292 88.1322 35.3521 88.081 35.4032C87.8411 35.6422 87.2286 36.4477 86.5345 36.7723C86.4114 36.8309 86.3474 36.8745 86.1811 36.9045C85.7908 36.9767 85.4294 36.7528 85.5285 36.108C85.6277 35.4633 85.7157 35.2259 85.9476 34.7826C86.4082 33.8974 87.0207 33.0964 87.7244 32.363C87.9547 32.1226 88.2202 31.8971 88.5145 31.7258C88.7879 31.568 89.0742 31.5079 89.3573 31.6026C89.7363 31.7288 89.7779 32.3555 89.7475 32.6275C89.7203 32.8755 89.6548 33.0814 89.6132 33.0934V33.0964H89.61C89.61 33.0964 88.9799 32.8755 88.6328 33.2752M100.805 31.556C101.263 31.4508 101.181 31.7965 101.178 31.7995C100.944 32.8544 99.4218 33.8688 97.92 33.968C99.1067 32.4442 99.7544 31.9317 100.805 31.5575M120.106 31.6086C120.342 31.5124 120.464 31.5049 120.613 31.5365C120.701 31.556 120.849 31.6853 120.821 31.8566C120.683 32.6801 118.682 33.9229 117.468 33.953C118.265 32.9311 118.863 32.2172 120.106 31.6086ZM117.131 34.4324C117.288 34.3272 117.411 34.2265 117.609 34.1814C118.287 34.0357 118.969 33.8974 119.631 33.699C120.064 33.5683 120.469 33.3804 120.846 33.14C121.089 32.9822 121.347 32.7402 121.428 32.4652C121.523 32.1571 121.58 31.8701 121.227 31.4899C120.801 31.033 120.178 31.1352 119.669 31.2509C118.887 31.4328 118.207 31.8385 117.593 32.3255C116.814 32.9401 116.176 33.6449 115.669 34.497C115.199 35.2845 114.231 36.0975 113.389 36.5559C112.979 36.7768 112.653 36.8399 112.255 36.882C111.685 36.9421 111.279 36.6806 111.119 36.1126C111.023 35.7744 111.09 35.4678 111.228 35.1568C111.589 34.3302 112.093 33.5743 112.683 32.886C113.069 32.4352 113.518 32.0534 114.033 31.7394C114.414 31.5124 114.798 31.5545 114.938 31.7559C115.09 31.9708 114.989 32.3239 114.666 32.5794C114.442 32.7583 114.164 32.88 113.94 33.0588C113.716 33.2347 113.491 33.4255 113.328 33.6479C113.144 33.9019 113.246 34.1078 113.547 34.24C113.884 34.3888 114.332 34.2626 114.658 33.9094C114.993 33.5457 115.221 33.1295 115.378 32.6666C115.685 31.7739 114.924 31.1998 114.095 31.302C112.87 31.4538 111.8 32.1151 110.846 33.3218C110.617 33.6134 110.243 34.1078 109.659 34.8427C109.659 34.8427 108.624 36.0855 107.39 36.8264C107.311 36.873 107.162 36.9421 106.996 36.9196C106.865 36.903 106.657 36.7798 106.657 36.5889C106.654 36.2749 106.823 36.0705 107.028 35.7263C107.19 35.4513 108 34.2325 108.37 33.5502C108.509 33.2888 108.675 33.0318 108.77 32.7538C109.021 32.0339 108.48 31.4478 107.687 31.5695C107.471 31.6026 107.201 31.6988 106.9 31.8506C106.275 32.1586 105.314 33.1866 105.229 33.2527C105.288 32.8529 105.4 32.4863 105.386 32.1241C105.363 31.5199 104.733 31.1833 104.084 31.5395C103.682 31.7604 103.399 32.0489 103.119 32.3585C102.652 32.868 102.27 33.4435 101.792 33.9455C101.088 34.6819 100.124 35.815 99.4058 36.365C98.8124 36.8219 98.0879 37.0789 97.7936 37.1014C97.3602 37.1315 97.0772 37.0052 96.9476 36.6145C96.8821 36.3951 96.8693 36.1727 96.9092 35.9472C97.0004 35.4814 97.2675 35.0621 97.4482 34.6188C97.5618 34.3437 97.7873 34.2385 98.0847 34.1784C98.766 34.0417 99.4409 33.8824 100.108 33.699C100.696 33.5337 101.242 33.2692 101.651 32.8184C101.926 32.5148 102.041 32.1481 101.881 31.7709C101.726 31.4012 101.403 31.1923 100.829 31.1698C100.509 31.1578 99.7416 31.3156 99.249 31.5755C96.463 33.0378 96.3271 34.4549 95.8569 34.9238C95.489 35.2935 93.8242 36.6521 93.1445 36.894C92.5927 37.0924 92.0441 36.8008 91.873 36.2568C91.7323 35.8135 91.873 35.4167 92.0617 35.02C92.5047 34.0973 93.1557 33.2978 93.8082 32.5103C94.1008 32.1601 94.3471 32.0114 94.6766 31.816C94.9837 31.6342 95.3499 31.7063 95.4906 31.8731C95.6602 32.0745 95.601 32.4412 95.3419 32.6801C95.23 32.7823 95.0876 32.8499 94.9533 32.9281C94.7614 33.0408 94.5423 33.1234 94.3823 33.2662C94.2192 33.4135 94.0961 33.5863 94.0113 33.7847C93.9089 34.0296 94.0993 34.2446 94.3855 34.24C94.5023 34.24 94.6334 34.207 94.7294 34.1454C95.3067 33.7922 95.7177 33.3128 95.8713 32.6711C96.0696 31.825 95.5994 31.3576 94.7214 31.4613C94.1232 31.5275 93.5859 31.7333 93.1077 32.079C91.9994 32.8665 92.0441 33.0618 90.9998 34.0402C90.4048 34.5992 90.1106 34.8036 89.5412 35.0681C89.2086 35.2424 88.9031 35.1342 88.8759 35.0906C88.8295 35.008 88.9079 34.8727 88.9719 34.7901C88.9974 34.757 89.2725 34.4414 89.522 34.0236C89.7443 33.6539 89.9075 33.2377 89.981 32.8214C90.0034 32.6921 90.0162 32.4817 89.9986 32.2233C89.981 31.9633 89.9026 31.7499 89.7443 31.571C89.5748 31.3757 89.3813 31.3171 88.9878 31.3336C87.6172 31.3967 86.5153 32.1601 85.5461 33.2767C85.012 33.9019 84.4586 34.5105 83.8844 35.1042C83.056 35.9668 82.234 36.5784 82.0356 36.6641C81.9477 36.7017 81.8613 36.7197 81.7846 36.7302C81.5655 36.7603 81.4231 36.6085 81.4279 36.4026C81.4343 36.1652 81.5111 35.9728 81.6582 35.7158C81.6902 35.6632 82.5266 34.2325 82.9153 33.5713C83.0672 33.3143 83.2239 33.0558 83.3231 32.7808C83.5982 32.0174 83.0112 31.4117 82.1764 31.5801C82.0069 31.6131 81.8437 31.6822 81.6902 31.7514C80.865 32.1181 79.8638 33.1565 79.819 33.2722C79.915 33.0408 80.3324 31.9663 79.5471 31.529C79.2145 31.3441 78.8066 31.4057 78.4132 31.6913C77.8263 32.1181 77.2697 32.7718 76.2717 34.0281C75.5073 34.9899 74.6644 35.9127 74.2502 36.359C74.0519 36.5739 73.8424 36.7948 73.5849 36.9466C73.4745 37.0233 73.2138 37.148 73.0507 37.0864C72.9724 37.0593 72.8988 37.0248 72.8684 36.9406C72.8492 36.8835 72.8188 36.6295 72.966 36.3485C73.433 35.4498 73.9335 34.5662 74.4117 33.6735C74.5461 33.4255 74.6596 33.1685 74.7764 32.9131C75.0802 32.2458 74.4437 31.5004 73.7176 31.4884C73.2826 31.4824 73.0331 31.5876 72.7964 31.7318C72.4206 31.9543 72.0591 32.2007 71.7441 32.4953C71.6337 32.5884 71.1555 33.0904 71.0708 33.152C71.0804 33.1189 71.5602 32.2894 71.2547 31.7348C70.9348 31.1563 70.1672 31.5996 70.0296 31.6612C69.0444 32.097 67.0645 34.9824 66.2217 35.8075C66.1657 35.8631 66.1865 35.9097 66.2153 35.9502C66.244 35.9908 66.2728 35.9833 66.3048 35.9953C67.0773 35.0666 69.3755 32.2698 69.9097 31.9332C70.1 31.8145 70.1991 31.7844 70.2711 31.7874C70.3671 31.7874 70.4374 31.8896 70.431 32.0189C70.4262 32.1481 70.2215 32.7432 70.0184 33.0904C69.1836 34.5151 68.3887 35.9638 67.2276 37.1931C67.2004 37.2246 67.1796 37.2607 67.1668 37.3013C67.21 37.3343 67.3764 37.2652 67.4387 37.2427C67.4995 37.2201 67.6706 37.1495 67.7906 37.1044C67.8865 37.0683 68.2864 37.0142 68.3855 37.0112C68.683 36.9782 68.8461 36.876 68.9885 36.6566C69.5402 35.8015 70.0616 34.9674 70.6534 34.0958C71.5138 32.8334 72.7964 31.7348 73.5993 31.6853C73.9751 31.6627 74.1095 31.8566 73.9399 32.1782C73.8008 32.4427 73.6505 32.7042 73.4729 32.9476C72.8076 33.8508 71.8784 35.7353 71.7457 36.1471C71.6321 36.4973 71.6273 36.8625 71.912 37.1194C72.2239 37.3975 72.6173 37.4921 73.0699 37.3539C73.5545 37.2081 73.9335 36.9015 74.2662 36.5935C74.5957 36.2869 75.1938 35.6782 76.1358 34.5496C76.9035 33.6284 77.6231 32.7387 77.9606 32.3345C78.1589 32.097 78.5204 31.8521 78.7139 31.8355C78.9202 31.816 78.9586 31.9152 78.9874 31.9963C79.0002 32.0294 79.0018 32.0685 79.0002 32.106C78.9362 32.7928 77.396 35.1778 76.9674 35.812C76.5884 36.374 76.1694 36.909 75.7631 37.4546C75.7695 37.4846 75.7919 37.5042 75.8415 37.5072C75.8671 37.5072 75.8975 37.5147 75.9167 37.5012L75.9727 37.4651C76.2445 37.2802 76.6076 37.127 76.8507 37.0518C77.089 36.9782 77.1897 37.0127 77.3257 37.0293C77.4632 37.0488 77.564 36.9466 77.6935 36.6626C77.7703 36.4973 78.1781 35.6948 78.6995 34.9328C79.0673 34.3948 79.5167 33.944 79.7694 33.6314C80.2796 33.0062 80.9017 32.4322 81.4407 32.088C81.8517 31.8265 82.3155 31.6687 82.4675 31.8265C82.7409 32.1105 82.1316 32.8605 81.9125 33.1821C81.6598 33.5518 81.1512 34.3167 80.8154 34.9103C80.5883 35.31 80.3516 35.7203 80.3308 36.1997C80.302 36.8114 80.6602 37.2021 81.2984 37.2382C81.6134 37.2547 81.8693 37.172 82.1172 36.9797C83.0064 36.2914 83.4526 35.8315 84.1148 35.2514C84.2123 35.1658 84.3019 35.0756 84.369 35.014C84.369 35.3416 84.3403 35.7083 84.3754 35.9953C84.4922 36.9241 85.2918 37.3509 86.1427 37.124C86.7952 36.9511 87.2398 36.5063 87.694 36.081C87.9515 35.8405 88.1754 35.576 88.4201 35.3116C88.8935 35.543 89.2725 35.3912 89.6804 35.1958C90.109 34.9915 91.0046 34.4054 91.0829 34.2836C90.9518 34.488 90.8814 34.8231 90.867 35.1658C90.8271 36.2238 91.446 36.6896 91.6459 36.8264C92.1673 37.1856 92.7334 37.2923 93.3172 37.0112C93.733 36.8039 94.1264 36.5664 94.4991 36.2944C94.9517 35.9728 95.8697 35.2199 95.8681 35.2334C95.5082 36.7843 97.0276 37.7101 98.3438 37.1901C98.6333 37.0789 98.9084 36.9421 99.1691 36.7768C100.362 36.0028 101.207 34.9614 102.109 33.8703C102.577 33.2993 103.028 32.7132 103.537 32.1782C103.844 31.8551 104.129 31.6898 104.34 31.7213C104.396 31.7288 104.492 31.7409 104.512 31.8415C104.597 32.2383 103.861 33.3353 103.588 33.8673C103.201 34.6203 101.523 36.9872 101.015 37.6695C101.173 37.6064 101.243 37.5958 101.287 37.5568C101.669 37.2201 102.094 36.9917 102.643 37.0443C102.908 37.0698 102.996 36.8625 103.092 36.6972C103.276 36.3801 103.874 35.2289 104.186 34.8171C104.528 34.3648 104.947 33.938 105.306 33.5007C105.766 32.9356 106.297 32.4397 106.931 32.0504C107.14 31.9212 107.505 31.8025 107.645 31.7784C107.799 31.7529 107.922 31.7784 107.989 31.8686C108.088 32.0069 108.01 32.2022 107.943 32.3179C107.797 32.5794 107.177 33.3233 106.323 34.7916C106.067 35.2349 105.789 35.6797 105.763 36.2117C105.731 36.8204 106.102 37.2066 106.743 37.2427C107.039 37.2592 107.294 37.157 107.517 37.0052C107.818 36.8069 108.101 36.592 108.37 36.3575C108.861 35.9247 109.333 35.4739 109.849 34.996C109.849 35.2079 109.841 35.3852 109.849 35.561C109.91 36.8835 110.978 37.7371 112.303 37.3193C112.99 37.1014 113.352 36.8309 113.892 36.4642C114.42 36.1095 114.897 35.6873 115.412 35.2875C115.33 36.0074 115.493 36.4206 115.858 36.8354C116.494 37.5628 117.558 37.4425 118.454 36.9647C119.554 36.3786 120.294 35.552 121.003 34.5812C121.052 34.5151 121.049 34.4324 121.078 34.3167C121.108 34.204 120.968 34.2911 120.937 34.3302C120.909 34.3678 120.721 34.5857 120.614 34.7164C119.97 35.4934 119.346 36.2643 118.406 36.7528C118.105 36.9106 117.747 37.0368 117.414 37.0999C117.233 37.133 116.507 37.1991 116.405 36.5604C116.334 36.1141 116.445 35.4994 116.72 34.9374C116.899 34.5707 117.137 34.4414 117.137 34.4414M59.1031 25.8994C59.0823 26.1368 59.0216 26.4449 58.6217 26.9634C57.4047 28.5399 54.9145 30.471 54.761 30.5897C54.6059 30.7084 54.5195 30.5401 54.6123 30.4499C55.639 29.4536 57.1855 26.4043 58.1915 25.71C58.4218 25.5507 58.7545 25.3223 58.9464 25.4696C59.0631 25.5613 59.1399 25.6484 59.1015 25.8994M58.4714 25.2186C57.9196 25.3178 57.5086 25.6589 57.1408 25.9956C56.1748 26.8837 55.4471 27.9522 54.705 29.0102C54.3084 29.5783 53.9757 30.1899 53.5855 30.761C53.2528 31.2434 52.9826 31.3667 52.3636 31.29C51.8039 31.2179 51.3609 31.1277 51.3433 31.1878C51.7047 31.574 52.9762 31.3636 52.9794 31.6101C52.9794 31.7454 52.8066 32.0489 52.6819 32.2744C52.0374 33.412 51.1721 34.3362 49.8879 34.8592C49.5584 34.9915 49.237 35.0936 48.8643 34.8487C48.9779 34.6939 49.0339 34.6112 49.1762 34.4264C49.3201 34.2415 49.6368 33.8869 49.6608 33.4811C49.6848 33.0754 49.3601 32.7117 49.0419 32.7432C48.7972 32.7673 48.6244 32.9626 48.4389 33.2617C48.0711 33.8433 48.0279 34.4414 48.3925 35.0576C47.9815 35.6858 47.4234 36.1772 46.8124 36.604C46.4478 36.858 45.9792 36.8384 45.7153 36.6611C45.4114 36.4567 45.3299 36.0464 45.4386 35.6497C45.6577 34.8307 46.9404 32.2248 49.1858 31.4809C49.6928 31.3126 50.0494 31.5695 50.0494 32.073C50.0494 32.3179 49.9823 32.5644 49.9407 32.7928C49.9791 32.862 50.0046 32.9416 50.0222 33.0183C50.1358 32.7538 50.2206 32.4757 50.2429 32.1722C50.2861 31.6071 50.1182 31.3201 49.5584 31.2344C48.8867 31.1322 48.3829 31.2269 47.9191 31.3606C47.417 31.4899 46.6077 31.9482 46.2687 32.2263C45.3379 32.9897 44.5798 33.7697 44.4454 35.1943C44.3687 36.0149 44.6933 36.4086 45.1299 36.7377C45.6081 37.0984 46.2495 37.0759 46.8652 36.7513C47.265 36.5394 48.0199 35.7594 48.3877 35.4288C48.5013 35.3236 48.7172 35.1312 48.8307 35.1778C49.4513 35.4393 50.2046 34.9073 50.8491 34.5391C51.121 34.3813 51.1034 34.4129 51.0938 34.4129C51.0938 34.4129 51.0554 34.6563 50.7387 35.259C50.3357 36.0254 50.0846 36.3034 49.5856 36.9842C49.0643 37.698 48.5013 38.3863 47.9431 39.0761C47.4378 39.6983 46.926 40.2468 46.2958 40.7217C45.5873 41.2537 44.7797 41.5543 43.8601 41.5543H43.0141C43.0956 41.6249 43.1324 41.6865 43.1804 41.6925C44.2503 41.8082 45.1875 41.5873 46.1439 41.0388C46.5293 40.8179 47.6808 40.1461 48.7044 39.1227C50.7643 37.0698 52.9154 33.7576 53.7614 32.3164C54.3947 31.2404 54.5691 31.4102 55.4679 31.4703C56.074 31.5124 55.9781 31.4403 56.1556 31.3381C56.2643 31.275 54.1932 31.3652 54.4315 31.1563C54.7226 30.8963 56.9744 29.159 58.0476 27.9072C58.5514 27.3181 59.1063 26.7635 59.2806 25.9866C59.4118 25.408 59.0903 25.1149 58.4698 25.2291M67.7234 29.171C67.0821 29.9375 66.6855 30.4214 66.0121 31.2344C65.7435 30.7144 65.3388 30.3808 64.7759 30.2035C64.2657 30.0442 63.7779 30.0983 63.2821 30.2471C63.3301 30.4529 63.4836 30.6303 63.7427 30.7791C63.8979 30.5867 64.037 30.3733 64.3697 30.3958C64.8015 30.4259 65.1053 30.6633 65.3692 30.9218C65.7451 31.2855 65.7275 31.556 65.4092 31.9933C64.8351 32.7838 64.2433 33.5502 63.7059 34.3798C63.1206 35.289 61.8491 37.0834 61.6508 37.0804C61.3821 37.0804 60.9951 36.8459 60.7648 36.595C60.2514 36.0329 59.8436 35.4438 59.8164 34.6879C59.7924 34.0161 59.8164 33.5442 60.1603 32.4502C60.8192 30.3312 61.9019 28.8179 63.9522 27.273C64.6687 26.7335 66.2329 26.3007 66.8278 26.2841C67.6211 26.2616 68.0881 26.3277 68.6014 26.3923C69.1532 26.4615 69.537 26.5246 70.1528 26.5576C70.1528 26.5576 69.8665 26.9439 69.7385 27.0671C69.6106 27.1903 68.1968 28.5985 67.7202 29.1665M66.2457 33.5247C65.8586 34.7765 65.2429 35.6166 64.1138 36.344C63.8259 36.5288 63.5012 36.7332 63.1718 36.8429C62.9591 36.9151 62.8151 36.9586 62.7224 36.9722C63.8419 35.4919 64.9438 34.0372 66.0793 32.5328C66.3272 32.889 66.3448 33.2001 66.2457 33.5217M73.0203 25.71C73.0203 25.5192 72.9292 25.4591 72.734 25.4531C72.1647 25.4365 71.6337 25.5192 71.2067 25.8994C70.8789 26.1924 70.4838 26.2691 70.0664 26.2466C69.705 26.227 69.4891 26.1879 68.9037 26.0903C67.3892 25.8303 66.0745 25.9475 65.2173 26.1594C64.2641 26.3938 63.4564 26.75 62.5688 27.273C61.4925 27.9072 59.6197 29.6204 59.1111 31.5695C58.828 32.644 58.6793 34.0026 59.0264 35.1523C59.3734 36.3019 60.1731 36.9045 61.2862 37.42C60.712 38.1173 60.0723 38.5997 59.3462 39.1032C58.4602 39.7208 56.9377 40.2498 55.9397 40.1055C55.1528 39.9928 54.6235 39.2489 54.3356 38.6042C54.0461 37.9595 54.0317 37.5237 54.3356 37.0338C54.5339 36.7152 54.8138 36.5484 54.8809 36.2012C54.8953 36.1216 54.7466 36.1486 54.7274 36.1606C54.0653 36.5348 53.6543 37.4501 53.7886 38.1609C53.8782 38.6463 54.0605 39.0701 54.3724 39.4699C54.9465 40.2077 55.8245 40.5639 56.6626 40.5143C57.9228 40.4377 59.0392 40.0514 61.1151 38.3518C61.5517 37.9941 61.8491 37.7236 62.4297 37.4891C62.7512 37.3599 63.0806 37.2382 63.3941 37.0954C64.5776 36.5589 65.494 35.7474 66.1241 34.6593C66.5383 33.9395 66.7558 33.1986 66.4711 32.375C66.4232 32.2398 66.5351 32.0219 66.6375 31.8836C67.0517 31.3216 67.4867 30.773 67.9153 30.2215C68.3967 29.6023 68.8717 28.9727 69.3707 28.3655C69.9337 27.6772 70.7669 26.8913 71.3155 26.5351C71.5058 26.4119 71.7073 26.3112 71.9216 26.2315C72.2303 26.1128 72.6589 25.9505 72.8396 25.9069C73.0219 25.8633 73.0219 25.7055 73.0219 25.7055M40.5431 31.6913C40.372 32.0579 40.1641 32.4637 39.8746 32.7327C38.7119 33.8298 37.3925 33.9335 37.2469 33.9335C37.3317 33.8042 38.1649 32.892 38.8303 32.2939C39.0494 32.0985 39.881 31.4884 40.1657 31.3787C40.4232 31.2795 40.6503 31.4508 40.5399 31.6868M31.5646 34.6653C31.0416 35.1883 30.5314 35.7293 29.9845 36.2313C29.6902 36.5033 29.3607 36.7302 28.9961 36.9121C28.5035 37.1495 28.1628 36.9391 28.2636 36.3891C28.3979 35.6812 28.6986 34.9644 29.1672 34.3152C29.8325 33.394 30.6722 32.629 31.5854 31.9347C31.8637 31.7288 32.1723 31.571 32.5066 31.4628C33.0088 31.3005 33.3494 31.6086 33.2647 32.1136C33.2471 32.2218 33.1943 32.3239 33.1511 32.4231C32.7785 33.2692 32.2267 34.0011 31.5646 34.6653ZM19.1811 26.768C17.6762 27.2534 16.0753 28.1536 15.1621 28.8645C14.3448 29.5017 13.6539 30.0712 12.9102 31.2569C12.6511 31.6898 12.4032 32.1286 12.1665 32.5749C12.0578 31.828 12.2209 31.1142 12.5312 30.4424C12.9198 29.5963 13.35 28.9802 13.9978 28.3896C14.5927 27.8501 15.2404 27.5209 15.9105 27.2354C17.7066 26.466 18.6901 26.511 19.2707 26.5486C19.5554 26.5682 19.3634 26.7064 19.1779 26.7665M28.7674 27.6352C28.8026 27.5991 28.9593 27.4308 29.6358 27.2444C29.9157 27.1663 31.2335 26.8206 31.8285 26.8176C32.3626 26.8176 32.4906 26.9243 32.5514 27.1392C32.6361 27.4263 32.5226 27.6111 32.2603 27.8065C31.8956 28.077 31.3647 28.1837 30.8785 28.1777C30.0085 28.1702 29.3032 28.0845 28.7642 27.7749C28.7114 27.7449 28.7242 27.6757 28.7642 27.6337M41.0149 31.1262C40.5831 30.9639 40.1401 30.9248 39.6907 31.027C38.7279 31.2449 37.9522 31.7844 37.2469 32.4021C36.153 33.3549 35.2206 34.21 34.0851 35.2184C33.4886 35.7504 32.8216 36.1877 32.0844 36.5303C32.2411 36.1892 32.4426 35.8796 32.6409 35.5685C33.1015 34.8412 35.0303 31.9512 35.1758 31.6943C35.3214 31.4388 35.5293 31.1683 35.307 31.2149C35.1326 31.2509 35.0559 31.3005 34.9999 31.3141C34.9039 31.3411 34.7088 31.3501 34.5649 31.3336C34.3778 31.3141 34.1507 31.2479 34.1091 31.2404C34.0691 31.2314 34.0323 31.2043 33.9524 31.2765C33.8996 31.3231 33.6613 31.7168 33.5349 31.8881C33.1847 31.1713 32.9336 31.042 32.1755 31.0946C31.475 31.1442 30.992 31.4253 30.6002 31.6837C30.21 31.9422 29.8453 32.2458 29.4951 32.5734C29.2152 32.8544 28.673 33.4992 28.5147 33.7246C28.3772 33.926 28.0765 34.3257 27.9405 34.5707C27.8446 34.742 27.763 34.8787 27.6431 34.9945C26.8322 35.7804 25.9606 36.4281 24.9802 37.0894C24.8315 37.1886 24.5308 37.3869 24.3533 37.3599C24.1758 37.3328 24.4029 36.8805 24.4748 36.7257C24.6444 36.3755 26.6355 32.8184 26.7475 32.6891C26.8226 32.5133 26.9746 32.3811 27.1873 32.339C27.2273 32.3315 27.835 32.2999 27.9773 32.2729C28.2508 32.2172 28.2844 32.1211 28.246 31.9783C27.9373 31.9948 27.6271 32.0084 27.328 31.9347C27.2672 31.9212 27.2464 31.8656 27.2544 31.813C27.2752 31.6702 28.8554 29.2672 28.9433 29.1485C29.0313 29.0298 28.5547 29.2041 28.4123 29.2883C27.9725 29.5467 27.8174 29.8293 27.5775 30.1404C27.1985 30.6333 26.861 31.1578 26.5156 31.6747C26.3812 31.8791 26.2117 32.0008 25.959 32.0414C25.3641 32.1346 24.7691 32.088 24.0462 32.088C24.2477 31.7965 24.8827 31.027 25.073 30.8392C25.8806 30.0457 26.6275 29.3604 27.4384 28.6045C27.8286 28.2408 28.3228 28.0695 28.8793 28.2273C29.1272 28.2964 29.4455 28.367 29.735 28.4151C30.4467 28.5338 31.2543 28.5383 31.6893 28.4482C32.0892 28.3625 32.6809 28.0018 32.8936 27.6517C33.0487 27.3947 33.0184 27.1798 32.8616 26.9273C32.6921 26.6508 32.3514 26.5156 31.966 26.4975C31.2303 26.4584 29.8405 26.6208 28.3388 27.2549C27.843 27.4653 27.2832 27.4924 26.7139 27.3346C25.8886 27.1062 24.2941 26.7395 24.0222 26.6869C23.1586 26.5246 22.602 26.4314 21.8408 26.3758C20.7404 26.2961 19.6593 26.2375 18.5654 26.2931C17.3675 26.3533 16.4447 26.5907 15.5379 27.0265C14.4759 27.536 13.8698 28.107 13.518 28.4647C12.7391 29.2552 12.6431 29.4355 12.3361 30.0081C11.8243 30.9669 11.538 31.9753 11.7827 33.0558C11.8963 33.5563 12.045 34.0747 12.3281 34.5136C12.7391 35.1538 13.2349 35.5475 13.9818 35.7368C14.5991 35.8946 15.2212 35.8466 15.8018 35.6993C16.3216 35.567 16.8109 35.3506 17.2507 35.002C18.0024 34.4023 18.4614 33.8884 18.9684 33.0949C19.1907 32.7477 19.952 31.7424 19.8928 30.474C19.864 29.8518 19.8033 29.7136 19.7521 29.5182C19.7377 29.4656 19.5857 29.4025 19.5154 29.416C19.4434 29.4325 19.3522 29.5347 19.341 29.6069C19.3267 29.709 19.5138 30.1298 19.493 30.5191C19.4482 31.3757 19.0932 32.1451 18.6294 32.9251C18.1943 33.6524 17.6346 34.2911 16.9709 34.7796C15.9729 35.5099 14.8038 35.8015 13.5563 35.2364C13.2733 35.1072 13.0494 34.9253 12.8862 34.6939C12.592 34.2761 12.5488 33.6554 12.5856 33.2166C12.6847 32.0655 13.7547 30.9429 14.0169 30.6213C14.3832 30.1719 14.8134 29.7646 15.2436 29.3709C15.6754 28.9772 16.3615 28.4422 16.8189 28.1506C17.9065 27.4503 18.7285 27.1302 19.9248 26.8191C21.0251 26.5321 23.3665 26.9123 24.0494 27.0671C24.8635 27.2519 26.6563 27.7313 26.6563 27.7313C26.6563 27.7313 26.4964 27.6787 26.6595 27.7313L26.9106 27.811C26.8722 27.8846 26.2197 28.4136 26.1925 28.4332C24.6236 29.679 22.319 32.1451 22.319 32.1451C22.279 32.1511 21.7624 32.2804 20.1343 32.2413C20.1087 32.2413 20.1119 32.3705 20.1119 32.3841C20.1199 32.4261 20.1119 32.6951 21.0747 32.6982C21.3306 32.6982 21.7144 32.6591 21.9639 32.632C21.9239 32.6771 20.5693 34.4099 20.1343 34.9554C19.3698 35.9142 18.583 36.8595 17.8185 37.8183C17.1852 38.6087 16.3343 39.6727 15.1317 40.6405C14.268 41.3348 13.1405 42.0126 12.1953 42.3508C11.2501 42.6904 10.2266 42.7926 9.32776 42.6588C8.64806 42.5596 8.06271 42.3042 7.63889 41.948C6.88082 41.3078 6.4602 40.3219 6.47779 39.1918C6.48259 38.7861 6.58015 38.3818 6.67611 37.9881C6.77206 37.5943 7.19908 36.0975 8.36498 35.0891C8.7728 34.7255 9.35975 34.5556 9.60444 34.5241C9.79636 34.5015 9.73879 34.5045 9.90831 34.4519C10.0778 34.3993 9.7036 34.2896 9.61084 34.2941C7.80522 34.4264 6.49698 35.9563 6.2219 36.2779C5.92123 36.634 5.08799 37.6139 5.01442 38.7515C4.97924 39.2895 4.99683 39.8846 5.19994 40.3776C5.55819 41.2537 6.25549 41.9119 7.12551 42.4049C7.70606 42.7265 8.32979 42.9308 8.9983 43.0165C9.52608 43.0796 10.0986 43.1052 10.7911 43.0691C11.2405 43.0436 12.0898 42.8737 12.5792 42.7189C13.3356 42.4785 14.2552 42.1268 15.7778 41.0132C16.5646 40.4377 17.5834 39.3737 18.0616 38.8507C19.0564 37.7626 20.024 36.6521 20.9963 35.5475C21.5305 34.9419 23.1074 32.9551 23.6704 32.7372C24.3437 32.4772 25.0874 32.4637 25.9302 32.4337C25.7735 32.7417 25.6759 32.9596 25.5544 33.164C24.9178 34.228 23.648 36.338 23.5264 36.5844C23.4065 36.8294 23.4337 37.0112 23.4865 37.2397C23.5264 37.4275 23.6032 37.6003 23.6848 37.7416C23.7663 37.8814 23.9823 37.9866 24.1838 37.952C24.6859 37.8603 26.2101 36.6596 27.0097 35.9818C27.1345 35.8766 27.6159 35.4724 27.6047 35.5295C27.5023 36.0825 27.6943 36.5814 27.7102 36.6175C28.0253 37.3148 28.5707 37.423 29.2648 37.0308C29.8389 36.7077 31.4462 35.1207 31.6238 34.9464C31.523 35.1147 30.2883 37.1209 30.0932 37.3915C29.9653 37.5673 29.775 37.7191 29.5766 37.8273C29.4631 37.8874 29.0457 38.0557 28.8506 38.1444C28.3436 38.3698 27.9645 38.5276 27.4576 38.756C27.9326 38.6042 28.4875 38.4284 28.5659 38.3983C28.6442 38.3683 29.3239 38.1278 29.6182 38.0978C29.3815 38.484 29.1576 38.8747 28.9129 39.2549C28.5067 39.8831 28.1309 40.5338 27.6703 41.126C27.1745 41.7662 26.7603 42.4184 26.0406 42.9399C25.484 43.3456 24.8747 43.526 24.1998 43.562C23.8351 43.5816 23.6448 43.3907 23.6048 43.0255C23.5552 42.5762 23.672 42.2516 23.7951 41.8909C24.019 41.2191 24.5212 40.7142 25.0714 40.2588C25.6919 39.7464 27.3376 38.8462 27.4576 38.7575C27.3232 38.8071 27.1665 38.8567 26.4692 39.2008C25.9478 39.4593 25.1018 40.0304 24.7771 40.2483C23.8799 40.8555 23.3313 41.6685 23.3777 42.6543C23.4273 43.7048 23.987 43.7754 24.1006 43.7875C24.8619 43.8611 25.9494 43.3937 26.5188 43.0706C27.4512 42.5446 28.0381 42.0878 28.9769 40.9351C29.3911 40.4286 30.6898 38.3472 31.4958 37.3945C31.6717 37.1871 31.8557 37.0022 32.0732 36.8595C33.271 36.0855 33.882 35.6226 33.882 35.6226C33.882 35.6226 35.6636 34.1679 35.766 34.1033C35.7372 34.3077 34.7712 35.5941 35.6252 36.6145C36.1242 37.2096 36.8039 37.5102 37.6148 37.0458C38.6655 36.4462 39.5867 35.7008 40.2169 34.6849C40.2472 34.6353 40.2664 34.5812 40.276 34.5256C40.2488 34.5075 40.2201 34.4895 40.1913 34.473C40.0217 34.6443 39.897 34.8307 39.7595 35.011C39.1405 35.818 38.3824 36.4822 37.4229 36.906C36.8951 37.1405 36.5768 37.0112 36.3449 36.4071C36.1434 35.8916 36.3529 35.2033 36.6824 34.6188C36.8663 34.2956 37.119 34.1363 37.5076 34.0837C38.8319 33.9019 40.0425 33.4631 41.0405 32.5899C41.194 32.4547 41.3284 32.2819 41.4195 32.103C41.6498 31.6492 41.4963 31.3156 41.0053 31.1307" fill="#765200"/>
</svg>
