<svg width="127" height="69" viewBox="0 0 127 69" fill="none" xmlns="http://www.w3.org/2000/svg">
<rect width="126.5" height="69" rx="4" fill="white"/>
<mask id="mask0_73_430" style="mask-type:luminance" maskUnits="userSpaceOnUse" x="7" y="21" width="113" height="27">
<path d="M119.341 21.9356H7.15918V47.0644H119.341V21.9356Z" fill="white"/>
</mask>
<g mask="url(#mask0_73_430)">
<path d="M41.1071 37.5511C41.6973 37.5511 42.127 37.4339 42.4047 37.1995C42.6955 36.9478 42.8387 36.6266 42.8387 36.236C42.8387 35.8454 42.6999 35.5416 42.4178 35.2856C42.1443 35.0338 41.6583 34.908 40.9595 34.908H40.2998V37.5511H41.1027H41.1071ZM40.7121 33.8056C41.1982 33.8056 41.5498 33.6971 41.7754 33.4801C42.0011 33.2631 42.114 32.9419 42.114 32.5209C42.114 32.1 41.9968 31.7962 41.7668 31.5835C41.5367 31.3708 41.1982 31.2623 40.7599 31.2623H40.2998V33.8013H40.7078L40.7121 33.8056ZM39.0021 30.0515H40.2998C40.877 30.0515 41.3371 30.0949 41.68 30.186C42.0272 30.2771 42.3179 30.429 42.5566 30.646C42.7997 30.8674 42.9906 31.1451 43.1339 31.4793C43.2771 31.8135 43.3509 32.1564 43.3509 32.4992C43.3509 33.1242 43.1165 33.6537 42.6391 34.0877C43.0992 34.2439 43.4594 34.5217 43.7241 34.921C43.9932 35.3116 44.1277 35.7673 44.1277 36.2881C44.1277 36.9695 43.889 37.5467 43.4116 38.0198C43.1252 38.3106 42.804 38.5102 42.4438 38.6231C42.0532 38.7316 41.5628 38.788 40.9725 38.788H38.9978V30.0515H39.0021Z" fill="#003C4D"/>
<path d="M51.8572 30.0515H50.5552V38.788H51.8572V30.0515Z" fill="#003C4D"/>
<path d="M60.5288 36.7785C61.1668 37.3992 61.9003 37.7116 62.7379 37.7116C63.645 37.7116 64.4088 37.3948 65.0295 36.7612C65.6501 36.1188 65.9626 35.3376 65.9626 34.4175C65.9626 33.4974 65.6544 32.7032 65.0425 32.0739C64.4305 31.4403 63.6754 31.1234 62.7726 31.1234C61.8699 31.1234 61.1147 31.4403 60.4984 32.0739C59.8822 32.6989 59.5697 33.4714 59.5697 34.3915C59.5697 35.355 59.8908 36.1492 60.5332 36.7742M59.587 31.2146C60.4724 30.3336 61.5401 29.8909 62.7857 29.8909C64.0312 29.8909 65.0685 30.3336 65.9495 31.2276C66.8306 32.1173 67.2733 33.185 67.2733 34.4349C67.2733 35.6848 66.8306 36.7568 65.9409 37.6335C65.0512 38.5102 63.9748 38.9529 62.7162 38.9529C61.6008 38.9529 60.6026 38.5623 59.7172 37.7811C58.7407 36.9174 58.2546 35.7847 58.2546 34.3872C58.2546 33.1589 58.7017 32.1 59.5914 31.2189" fill="#003C4D"/>
<path d="M81.1136 34.2396V34.5304C81.1136 35.1857 81.0355 35.7673 80.8836 36.2707C80.736 36.7395 80.4843 37.1778 80.1284 37.5814C79.3298 38.4928 78.3099 38.9486 77.073 38.9486C75.8361 38.9486 74.8335 38.5102 73.9698 37.6248C73.1105 36.7395 72.6765 35.6762 72.6765 34.4349C72.6765 33.1936 73.1149 32.0913 73.9915 31.2102C74.8682 30.3249 75.9316 29.8822 77.1902 29.8822C77.8629 29.8822 78.4922 30.0211 79.0781 30.2988C79.638 30.5766 80.1848 31.0323 80.7273 31.6573L79.7985 32.5557C79.0911 31.6008 78.2274 31.1234 77.2119 31.1234C76.3005 31.1234 75.5323 31.4403 74.916 32.0783C74.2997 32.7032 73.9872 33.4888 73.9872 34.4306C73.9872 35.3724 74.3301 36.2056 75.0201 36.8349C75.6668 37.4209 76.3656 37.7116 77.1164 37.7116C77.7587 37.7116 78.3316 37.4946 78.8437 37.0563C79.3559 36.6136 79.638 36.0885 79.6987 35.4722H77.5461V34.2353H81.1136V34.2396Z" fill="#003C4D"/>
<path d="M87.3115 38.788V30.0515H92.0726V31.2927H88.6135V33.389H91.9727V34.6302H88.6135V37.5511H92.0726V38.788H87.3115Z" fill="#003C4D"/>
<path d="M99.8931 32.6728V38.788H98.5911V29.4569L104.884 36.1232V30.0514H106.186V39.3218L99.8931 32.6728Z" fill="#003C4D"/>
<path d="M113.855 35.4288H116.477L115.196 32.4602L113.855 35.4288ZM117.913 38.788L117.006 36.6657H113.313L112.354 38.788H110.952L115.222 29.5046L119.341 38.788H117.917H117.913Z" fill="#003C4D"/>
<path d="M22.1063 45.8058C22.0846 45.7017 22.0456 45.5975 22.0022 45.4847C21.9718 45.4109 21.9458 45.3371 21.9197 45.2677C21.8459 45.0246 21.7505 44.7816 21.6637 44.5429C21.5508 44.2391 21.4336 43.9309 21.3468 43.6098C21.2644 43.3103 21.2079 43.0022 21.1515 42.7027C21.0908 42.3685 21.0257 42.0257 20.9302 41.6958L20.9172 41.6437C20.8087 41.2705 20.6958 40.8886 20.5569 40.524C20.5049 40.3851 20.4528 40.2506 20.3964 40.1117C20.2835 39.8252 20.1663 39.5345 20.0752 39.2307C20.0275 39.0701 20.0014 38.9095 19.9754 38.7533C19.958 38.6491 19.9407 38.5406 19.919 38.4364C19.8842 38.2889 19.8452 38.1413 19.8104 37.9981C19.7453 37.755 19.6802 37.5033 19.6368 37.2516C19.6195 37.1561 19.6151 37.0606 19.6151 36.9652C19.6108 36.8219 19.6065 36.6874 19.5544 36.5659C19.5153 36.466 19.3895 36.2924 19.2549 36.236C19.2028 36.2143 19.1594 36.2143 19.116 36.236C18.9598 36.3055 18.9251 36.4443 18.886 36.67C18.8773 36.7265 18.8643 36.7829 18.8513 36.8393C18.8253 36.9304 18.8209 37.0259 18.8166 37.1214C18.8166 37.1908 18.8122 37.2603 18.7992 37.3341C18.7819 37.4643 18.7558 37.5945 18.7254 37.7203C18.6864 37.8983 18.6517 38.0675 18.6386 38.2455C18.6256 38.4104 18.6386 38.584 18.6473 38.7533C18.6517 38.8661 18.6603 38.9876 18.6603 39.1048C18.6603 39.2307 18.6517 39.3609 18.6473 39.4824C18.6386 39.6647 18.6256 39.8556 18.6386 40.0422C18.6473 40.1421 18.656 40.2462 18.669 40.3504C18.7037 40.6889 18.7385 41.0405 18.6864 41.3746C18.656 41.5656 18.5822 41.7392 18.5128 41.9128C18.465 42.03 18.4173 42.1385 18.3869 42.2513C18.2784 42.6289 18.2133 43.0629 18.1873 43.6185C18.1699 43.9613 18.2307 44.2868 18.2958 44.634C18.3522 44.9378 18.413 45.2546 18.413 45.5802C18.413 45.9057 18.2697 46.2138 18.1265 46.5002C18.0571 46.6435 17.9876 46.791 17.9355 46.9386C18.5215 47.021 19.116 47.0688 19.7236 47.0688C20.5786 47.0688 21.4163 46.982 22.2279 46.8171C22.2018 46.6565 22.1845 46.5002 22.1714 46.344C22.1584 46.1661 22.1411 45.9838 22.1107 45.8102" fill="#003C4D"/>
<path d="M32.2837 34.5C32.2837 27.5603 26.659 21.9356 19.7192 21.9356C12.7795 21.9356 7.15479 27.5603 7.15479 34.5C7.15479 40.6412 11.5643 45.7538 17.393 46.8431C17.393 46.5263 17.393 46.2138 17.4016 45.9057C17.406 45.6192 17.4103 45.3371 17.4103 45.0507C17.4103 44.7946 17.406 44.5385 17.3973 44.2781C17.3886 43.8311 17.3756 43.3711 17.3973 42.9197C17.4233 42.4076 17.445 41.9041 17.4364 41.405C17.4364 41.2792 17.3973 41.149 17.3539 41.0101C17.3192 40.8972 17.2845 40.7757 17.2714 40.6542C17.228 40.2896 17.2324 39.9164 17.2367 39.5605C17.2367 39.4563 17.2367 39.3565 17.2367 39.2524C17.2367 39.1482 17.2367 39.0571 17.228 38.9572C17.2194 38.7663 17.215 38.571 17.228 38.38C17.2454 38.1977 17.2975 38.0241 17.3496 37.8549C17.3843 37.742 17.4147 37.6379 17.4364 37.5294C17.4494 37.4643 17.4667 37.3992 17.4798 37.3341C17.5145 37.1778 17.5535 37.0172 17.5709 36.8567C17.5796 36.7742 17.5883 36.6917 17.5926 36.6093C17.6056 36.4313 17.623 36.2447 17.662 36.0581C17.7054 35.8541 17.7705 35.6501 17.8313 35.4548C17.9008 35.2422 17.9702 35.0208 18.0093 34.7995C18.0266 34.7127 18.0353 34.6302 18.044 34.5391C18.057 34.4349 18.0657 34.3264 18.0917 34.2222C18.1264 34.0703 18.1742 33.9315 18.2176 33.7926C18.287 33.5886 18.3478 33.3976 18.3695 33.1893C18.3782 33.0938 18.3912 32.9983 18.3999 32.8985C18.4389 32.5426 18.4823 32.1737 18.4823 31.8352C18.4823 31.6659 18.4172 31.4489 18.3651 31.258C18.3521 31.2146 18.3391 31.1712 18.3304 31.1278C18.3131 31.0714 18.248 31.0019 18.2046 30.9889C18.1438 30.9759 17.9876 31.0366 17.9615 31.1104C17.8964 31.2927 17.8877 31.4923 17.8791 31.705C17.8747 31.8396 17.866 31.9784 17.8443 32.1086C17.8226 32.2388 17.814 32.3864 17.8053 32.5253C17.8009 32.6208 17.7922 32.7206 17.7836 32.8117C17.7662 32.9897 17.7054 33.1416 17.649 33.2978C17.6317 33.3412 17.6143 33.3889 17.5969 33.4367C17.4233 33.9271 17.189 34.3915 16.985 34.7864C16.8505 35.0468 16.8591 35.2378 16.8635 35.4548C16.8635 35.5112 16.8678 35.5677 16.8678 35.6284C16.8678 35.8888 16.8548 36.1492 16.8244 36.427C16.8157 36.5008 16.7984 36.6483 16.6942 36.7178C16.6508 36.7438 16.5814 36.7655 16.4816 36.7308C16.321 36.6744 16.2472 36.4921 16.1995 36.3445C16.143 36.1536 16.143 35.9669 16.1474 35.789C16.1474 35.7456 16.1474 35.7022 16.1474 35.6588C16.1474 35.5633 16.1691 35.4678 16.1908 35.3767C16.2038 35.3246 16.2168 35.2769 16.2212 35.2291C16.2559 34.9861 16.3557 34.8081 16.4512 34.6345C16.5033 34.5391 16.5597 34.4436 16.6031 34.3307C16.6769 34.1528 16.7029 33.9662 16.7333 33.7709C16.7593 33.5929 16.7854 33.4107 16.8505 33.237C16.9199 33.0417 17.0024 32.8551 17.0892 32.6685C17.2714 32.2649 17.4407 31.883 17.4537 31.462L17.5058 30.8066C17.5188 30.6808 17.5622 30.5766 17.5752 30.5419C17.662 30.3379 17.8226 30.2251 18.0093 30.1035C18.1395 30.0211 18.4216 29.9516 18.5778 29.9429C18.7297 29.9343 18.8903 29.9994 19.0465 30.0601C19.3286 30.173 19.5066 30.2294 19.6368 30.0601C19.8104 29.8388 19.9015 29.4872 19.7323 29.2746C19.6932 29.2268 19.6368 29.1791 19.576 29.1314C19.4371 29.0185 19.2809 28.8927 19.2765 28.6887C19.2765 28.5845 19.3199 28.4804 19.4111 28.3979C19.5934 28.233 19.9232 28.1635 20.1272 28.1939C20.3225 28.2199 20.4527 28.3545 20.5655 28.4847C20.8173 28.7755 20.9084 29.1314 20.852 29.6131C20.8433 29.6695 20.8259 29.7259 20.8086 29.7824C20.7825 29.8605 20.7608 29.9386 20.7782 29.995C20.7869 30.0341 20.8129 30.0601 20.8563 30.0818C20.9952 30.1556 21.2643 30.1252 21.4119 30.0818C21.6679 29.9994 21.733 29.6652 21.7808 29.3961C21.7894 29.3614 21.7938 29.3267 21.7981 29.2963C21.8328 29.127 21.8285 28.9621 21.8198 28.7928C21.8198 28.68 21.8111 28.5672 21.8198 28.4456C21.8285 28.3198 21.8372 28.1982 21.8502 28.0724C21.8806 27.7339 21.911 27.3867 21.8719 27.0525C21.8632 26.983 21.8372 26.9093 21.8068 26.8311C21.7851 26.7704 21.7634 26.7096 21.746 26.6445L21.7243 26.5534C21.6766 26.3711 21.6245 26.1671 21.6636 25.9718C21.6896 25.859 21.7504 25.7722 21.8328 25.7374C21.8893 25.7157 21.9761 25.6984 22.0846 25.7678C22.4665 26.0022 22.384 26.5317 22.3276 26.8789L22.3146 26.9787C22.2972 27.0915 22.3016 27.2 22.3059 27.3129C22.3059 27.3953 22.3102 27.4821 22.3059 27.5733C22.2755 28.0724 22.2755 28.5802 22.2799 29.0706V29.4004C22.2799 29.4916 22.2929 29.5914 22.3059 29.6956C22.3319 29.9126 22.3536 30.1426 22.2885 30.3509C22.18 30.6894 21.8719 30.8544 21.5985 30.9976C21.5247 31.0366 21.4509 31.0757 21.3815 31.1191C21.1297 31.271 20.9475 31.5054 20.8737 31.7658C20.8303 31.922 20.839 32.0739 20.852 32.2345C20.8563 32.3213 20.8607 32.4081 20.8607 32.4992C20.8607 32.6077 20.839 32.7119 20.8173 32.8161C20.7999 32.8985 20.7869 32.9766 20.7825 33.0548C20.7652 33.2848 20.7695 33.5235 20.7782 33.7535C20.7825 33.9445 20.7869 34.1398 20.7782 34.3351C20.7782 34.3958 20.7608 34.4479 20.7478 34.4957C20.7391 34.526 20.7305 34.5521 20.7261 34.5825C20.7044 34.7517 20.6827 34.947 20.6697 35.151C20.6654 35.2205 20.6697 35.2899 20.6784 35.3593C20.6827 35.4244 20.6914 35.4939 20.6871 35.5633C20.6871 35.6892 20.6784 35.8194 20.6697 35.9496C20.6523 36.2968 20.635 36.6527 20.6697 36.9912C20.7305 37.5858 20.8476 38.189 20.9605 38.775C20.9995 38.9833 21.0386 39.1873 21.0777 39.3956C21.1037 39.5431 21.1254 39.6907 21.1428 39.8339C21.1731 40.0509 21.1992 40.2549 21.2469 40.4632C21.3164 40.741 21.4119 41.0231 21.503 41.2965C21.5638 41.4701 21.6202 41.6481 21.6766 41.8217C21.746 42.043 21.7894 42.2687 21.8328 42.49C21.8502 42.5768 21.8676 42.6636 21.8849 42.7461C21.9934 43.2409 22.0759 43.74 22.154 44.2261C22.1931 44.4691 22.2365 44.7121 22.2799 44.9508C22.3189 45.1635 22.3623 45.3762 22.4057 45.5888C22.4535 45.8102 22.5012 46.0359 22.5403 46.2615C22.5663 46.4091 22.5923 46.561 22.614 46.7172C28.152 45.4066 32.2707 40.4329 32.2707 34.4957M23.1349 25.1732C23.0784 25.1906 23.0264 25.2036 22.9743 25.2036C22.8701 25.2036 22.7703 25.1646 22.6878 25.0951C22.5706 24.991 22.5142 24.826 22.5446 24.6828C22.575 24.5483 22.6705 24.4484 22.8224 24.4007C23.1175 24.3096 23.3475 24.4745 23.4126 24.6785C23.469 24.8521 23.4083 25.0821 23.1349 25.1776" fill="#003C4D"/>
<path d="M22.4232 45.5932C22.3798 45.3805 22.3364 45.1679 22.2973 44.9552C22.2539 44.7121 22.2149 44.4691 22.1758 44.2261C22.0934 43.74 22.0109 43.2409 21.9067 42.7461C21.8894 42.6593 21.872 42.5725 21.8547 42.49C21.8113 42.2687 21.7635 42.043 21.6984 41.8217C21.6463 41.6437 21.5856 41.4701 21.5248 41.2965C21.4337 41.0231 21.3382 40.7453 21.2687 40.4632C21.2167 40.2549 21.1906 40.0509 21.1646 39.8339C21.1472 39.6907 21.1255 39.5431 21.0995 39.3956C21.0604 39.1873 21.0214 38.9833 20.9823 38.775C20.8695 38.189 20.7523 37.5858 20.6915 36.9912C20.6568 36.6527 20.6742 36.2924 20.6915 35.9496C20.6959 35.8194 20.7045 35.6892 20.7089 35.5633C20.7089 35.4939 20.7045 35.4244 20.7002 35.3593C20.6915 35.2856 20.6872 35.2161 20.6915 35.151C20.7089 34.947 20.7262 34.7517 20.7479 34.5825C20.7523 34.5521 20.761 34.5217 20.7696 34.4957C20.7827 34.4479 20.8 34.3958 20.8 34.3351C20.8087 34.1398 20.8 33.9445 20.8 33.7535C20.7957 33.5235 20.787 33.2848 20.8044 33.0548C20.8087 32.9766 20.8261 32.8985 20.8391 32.8161C20.8608 32.7162 20.8781 32.6121 20.8825 32.4992C20.8825 32.4081 20.8825 32.317 20.8738 32.2345C20.8651 32.0739 20.8521 31.922 20.8955 31.7658C20.9649 31.5097 21.1516 31.2753 21.4033 31.1191C21.4727 31.0757 21.5465 31.0366 21.6203 30.9976C21.8937 30.8544 22.2019 30.6894 22.3104 30.3509C22.3798 30.1426 22.3538 29.9169 22.3277 29.6956C22.3147 29.5914 22.306 29.4916 22.306 29.4004V29.0706C22.306 28.5758 22.3017 28.068 22.3321 27.5689C22.3364 27.4821 22.3321 27.3953 22.3321 27.3085C22.3321 27.1914 22.3277 27.0829 22.3407 26.9744L22.3538 26.8745C22.4058 26.5273 22.4883 25.9978 22.1107 25.7635C22.0022 25.694 21.9111 25.7114 21.859 25.7331C21.7765 25.7678 21.7114 25.8546 21.6897 25.9675C21.6463 26.1628 21.7028 26.3711 21.7505 26.5534L21.7722 26.6445C21.7852 26.7096 21.8112 26.7704 21.8329 26.8311C21.8633 26.9093 21.8894 26.983 21.8981 27.0525C21.9415 27.3867 21.9111 27.7339 21.8764 28.0724C21.8633 28.1983 21.8547 28.3241 21.846 28.4456C21.8373 28.5672 21.846 28.6843 21.846 28.7928C21.8503 28.9621 21.859 29.127 21.8243 29.2963C21.8199 29.3267 21.8113 29.3614 21.8069 29.3961C21.7592 29.6652 21.6941 29.9994 21.438 30.0818C21.2904 30.1252 21.0214 30.16 20.8781 30.0818C20.8391 30.0601 20.813 30.0298 20.8 29.995C20.7827 29.9386 20.8087 29.8648 20.8304 29.7824C20.8478 29.7303 20.8651 29.6739 20.8695 29.6131C20.9259 29.1357 20.8347 28.7755 20.583 28.4847C20.4702 28.3545 20.34 28.22 20.1447 28.1939C19.945 28.1635 19.6108 28.2373 19.4286 28.3979C19.3374 28.4804 19.2897 28.5802 19.294 28.6843C19.2984 28.8927 19.4546 29.0185 19.5935 29.127C19.6542 29.1748 19.7107 29.2225 19.7497 29.2702C19.919 29.4829 19.8278 29.8344 19.6542 30.0558C19.524 30.2251 19.3418 30.1686 19.064 30.0558C18.9078 29.995 18.7472 29.9299 18.5953 29.9386C18.439 29.9473 18.1613 30.0167 18.0311 30.0992C17.8444 30.2164 17.6795 30.3292 17.5971 30.5375C17.584 30.5723 17.5406 30.6764 17.5276 30.8023L17.4755 31.4576C17.4669 31.8786 17.2933 32.2605 17.111 32.6642C17.0285 32.8508 16.9417 33.0417 16.8766 33.2327C16.8159 33.4107 16.7855 33.5929 16.7594 33.7709C16.7291 33.9662 16.703 34.1528 16.6292 34.3307C16.5858 34.4392 16.5294 34.5391 16.4773 34.6345C16.3818 34.8081 16.2777 34.9861 16.2473 35.2291C16.2386 35.2769 16.2299 35.329 16.2169 35.3767C16.1952 35.4678 16.1735 35.5633 16.1735 35.6588C16.1735 35.7022 16.1735 35.7456 16.1735 35.789C16.1735 35.9669 16.1648 36.1536 16.2256 36.3445C16.2733 36.4964 16.3471 36.6744 16.5034 36.7308C16.6075 36.7699 16.677 36.7438 16.716 36.7178C16.8245 36.6483 16.8419 36.5008 16.8462 36.427C16.8766 36.1536 16.8896 35.8888 16.8896 35.6284C16.8896 35.5677 16.8896 35.5112 16.8896 35.4548C16.881 35.2335 16.8766 35.0425 17.0112 34.7864C17.2151 34.3915 17.4495 33.9228 17.6231 33.4367C17.6405 33.389 17.6578 33.3456 17.6752 33.2978C17.7359 33.1372 17.7924 32.9897 17.8097 32.8117C17.8184 32.7206 17.8227 32.6251 17.8314 32.5253C17.8401 32.3864 17.8488 32.2388 17.8705 32.1086C17.8922 31.9741 17.8965 31.8352 17.9009 31.7007C17.9095 31.488 17.9182 31.2884 17.9833 31.1061C18.0094 31.028 18.1656 30.9672 18.2264 30.9802C18.2698 30.9889 18.3392 31.0627 18.3522 31.1191C18.3653 31.1582 18.3783 31.2016 18.3913 31.2493C18.4477 31.4403 18.5085 31.6573 18.5085 31.8265C18.5085 32.1651 18.4694 32.534 18.4304 32.8898C18.4173 32.9897 18.4087 33.0851 18.4 33.1806C18.3783 33.389 18.3132 33.5799 18.2481 33.7839C18.2003 33.9228 18.1569 34.066 18.1222 34.2136C18.0962 34.3221 18.0875 34.4306 18.0745 34.5304C18.0658 34.6215 18.0571 34.7083 18.0397 34.7908C17.9963 35.0078 17.9269 35.2291 17.8618 35.4418C17.801 35.6371 17.7359 35.8367 17.6925 36.0451C17.6535 36.2317 17.6361 36.414 17.6231 36.5962C17.6144 36.6787 17.6101 36.7612 17.6014 36.8436C17.584 36.9999 17.545 37.1648 17.5103 37.321C17.4972 37.3861 17.4799 37.4512 17.4669 37.5163C17.4452 37.6248 17.4148 37.729 17.3801 37.8418C17.3323 38.0111 17.2802 38.1847 17.2585 38.367C17.2412 38.558 17.2499 38.7533 17.2585 38.9442C17.2585 39.044 17.2672 39.1439 17.2672 39.2437C17.2672 39.3435 17.2672 39.4477 17.2672 39.5518C17.2672 39.912 17.2585 40.281 17.3019 40.6455C17.315 40.767 17.3497 40.8842 17.3844 41.0014C17.4235 41.1403 17.4625 41.2705 17.4669 41.3963C17.4755 41.8955 17.4538 42.3946 17.4278 42.911C17.4061 43.3624 17.4191 43.8224 17.4278 44.2695C17.4321 44.5255 17.4408 44.7859 17.4408 45.042C17.4408 45.3241 17.4365 45.6105 17.4321 45.897C17.4278 46.2051 17.4235 46.5219 17.4235 46.8344C17.6014 46.8692 17.7837 46.8995 17.966 46.9256C18.018 46.778 18.0875 46.6305 18.1569 46.4872C18.2958 46.2008 18.4434 45.9057 18.4434 45.5671C18.4434 45.2286 18.3826 44.9248 18.3262 44.621C18.2611 44.2738 18.2003 43.9483 18.2177 43.6054C18.2437 43.0499 18.3088 42.6159 18.4173 42.2383C18.4521 42.1255 18.4955 42.0126 18.5432 41.8998C18.6126 41.7305 18.6864 41.5526 18.7168 41.3616C18.7689 41.0231 18.7342 40.6759 18.6994 40.3374C18.6908 40.2332 18.6777 40.1291 18.6691 40.0292C18.656 39.8469 18.6691 39.656 18.6777 39.4694C18.6864 39.3478 18.6908 39.2176 18.6908 39.0918C18.6908 38.9746 18.6821 38.8574 18.6777 38.7402C18.6691 38.571 18.656 38.3974 18.6691 38.2324C18.6821 38.0545 18.7168 37.8852 18.7559 37.7073C18.7819 37.5814 18.8079 37.4512 18.8296 37.321C18.8383 37.2473 18.8427 37.1778 18.847 37.1127C18.8513 37.0129 18.8557 36.9218 18.8817 36.8306C18.8947 36.7785 18.9078 36.7221 18.9164 36.6614C18.9555 36.44 18.9946 36.2968 19.1465 36.2273C19.1899 36.21 19.2333 36.21 19.2853 36.2273C19.4199 36.2794 19.5457 36.4574 19.5848 36.5572C19.6369 36.6831 19.6412 36.8176 19.6456 36.9608C19.6456 37.052 19.6499 37.1474 19.6673 37.2473C19.7107 37.499 19.7758 37.7507 19.8409 37.9937C19.8799 38.1413 19.919 38.2889 19.9494 38.4321C19.9711 38.5363 19.9884 38.6448 20.0058 38.7489C20.0318 38.9052 20.0579 39.0657 20.1056 39.2263C20.1968 39.5301 20.3139 39.8209 20.4268 40.1074C20.4789 40.2419 20.5353 40.3808 20.5874 40.5197C20.7262 40.8842 20.8391 41.2705 20.9476 41.6394L20.9649 41.6915C21.0604 42.0213 21.1255 42.3642 21.1863 42.6984C21.2427 42.9978 21.2991 43.306 21.3816 43.6054C21.4684 43.9223 21.5856 44.2347 21.6984 44.5385C21.7852 44.7729 21.8807 45.0203 21.9545 45.2633C21.9762 45.3371 22.0066 45.4109 22.0369 45.4803C22.0803 45.5888 22.1237 45.6973 22.1411 45.8015C22.1758 45.9751 22.1888 46.1574 22.2019 46.3353C22.2149 46.4916 22.2322 46.6478 22.2539 46.8084C22.3885 46.7824 22.523 46.7476 22.6576 46.7173C22.6359 46.561 22.6142 46.4091 22.5838 46.2615C22.5447 46.0359 22.497 45.8102 22.4492 45.5888" fill="white"/>
<path d="M22.8225 24.3964C22.6749 24.4441 22.5751 24.5439 22.5447 24.6785C22.5144 24.826 22.5708 24.9866 22.688 25.0908C22.7661 25.1602 22.8659 25.1993 22.9744 25.1993C23.0265 25.1993 23.0829 25.1906 23.135 25.1732C23.4041 25.0777 23.4692 24.8521 23.4128 24.6741C23.3477 24.4701 23.1176 24.3052 22.8225 24.3964Z" fill="white"/>
</g>
</svg>
