<svg width="127" height="69" viewBox="0 0 127 69" fill="none" xmlns="http://www.w3.org/2000/svg">
<rect width="126.5" height="69" rx="4" fill="white"/>
<path d="M29.0867 33.2671C29.0867 35.6777 28.8065 37.6423 28.2461 39.1658C27.3899 41.4762 25.9785 43.2604 24.012 44.5033C22.118 45.6961 19.8712 46.2975 17.2769 46.2975C13.0531 46.2975 9.81525 44.9092 7.5581 42.1378C5.85097 40.0329 5 37.522 5 34.6052C5 31.3727 6.00145 28.6564 7.99397 26.4563C10.2615 23.9504 13.4267 22.7025 17.4896 22.7025C20.2033 22.7025 22.502 23.3741 24.3907 24.7122C25.7346 25.6694 26.8866 27.0727 27.8413 28.932L22.1803 31.1672C21.6977 30.1498 21.1321 29.3881 20.4939 28.8769C19.5755 28.1602 18.4755 27.7994 17.2042 27.7994C14.6097 27.7994 12.7989 29.0874 11.7818 31.6634C11.3979 32.6106 11.2058 33.5929 11.2058 34.6002C11.2058 36.7051 11.896 38.4542 13.2814 39.8625C14.3036 40.9049 15.6734 41.4261 17.3806 41.4261C18.901 41.4261 20.1048 41.0001 20.992 40.1481C21.5784 39.5868 21.9624 38.7599 22.144 37.6573H17.2094V33.2571H29.0815V33.2671H29.0867ZM55.939 46.2674H42.0588V22.8027H48.358V41.2006H55.9338V46.2674H55.939ZM90.5795 22.8027L80.2282 46.2674H75.3247L65.118 22.8027H71.9828L77.8305 37.0659L83.7302 22.8027H90.5795ZM121.495 46.2674H113.665L107.656 37.2965V46.2674H101.357V22.8027H111.169C114.039 22.8027 116.161 23.6347 117.536 25.2986C118.646 26.6417 119.207 28.2204 119.207 30.0296C119.207 32.1094 118.569 33.7683 117.287 35.0062C116.467 35.798 115.336 36.3493 113.904 36.66L121.5 46.2624H121.495V46.2674ZM112.58 30.5408C112.58 29.7489 112.279 29.0773 111.683 28.5361C111.123 28.0249 110.214 27.7693 108.969 27.7693H107.853V33.3373H108.969C110.23 33.3373 111.138 33.0817 111.683 32.5705C112.279 32.0142 112.58 31.3376 112.58 30.5408Z" fill="#221F1F"/>
</svg>
