<svg width="127" height="69" viewBox="0 0 127 69" fill="none" xmlns="http://www.w3.org/2000/svg">
<rect width="126.5" height="69" rx="4" fill="white"/>
<path d="M17.989 33.8236C17.989 35.1453 17.8382 36.2256 17.5366 37.0597C17.0744 38.3265 16.3156 39.3063 15.255 39.9875C14.2334 40.6423 13.022 40.9722 11.6234 40.9722C9.3467 40.9722 7.60024 40.2098 6.38161 38.6897C5.45972 37.5353 5 36.1587 5 34.5597C5 32.7863 5.53999 31.2949 6.61511 30.088C7.83861 28.7137 9.54373 28.0278 11.7378 28.0278C13.2021 28.0278 14.4426 28.3958 15.4594 29.132C16.1842 29.6554 16.8045 30.4274 17.3201 31.4479L14.2675 32.674C14.0072 32.1171 13.7031 31.6989 13.3577 31.4192C12.8615 31.0249 12.268 30.8289 11.5845 30.8289C10.1859 30.8289 9.20806 31.5363 8.66077 32.9489C8.45401 33.4699 8.34942 34.0052 8.34942 34.5597C8.34942 35.7141 8.72157 36.6749 9.46832 37.4445C10.0205 38.0181 10.7575 38.3049 11.6794 38.3049C12.4991 38.3049 13.1486 38.0707 13.6277 37.6046C13.9439 37.2964 14.1507 36.8422 14.248 36.2399H11.5869V33.826H17.989V33.8236Z" fill="#909092"/>
<path d="M35.1546 35.4249C35.1546 36.1562 35.0963 36.7848 34.9747 37.301C34.7849 38.1017 34.3398 38.8378 33.6295 39.4975C32.6249 40.432 31.2822 40.9004 29.6014 40.9004C27.9206 40.9004 26.5488 40.4248 25.588 39.4712C25.0796 38.9717 24.7318 38.3431 24.5421 37.5855C24.4083 37.0525 24.3426 36.3307 24.3426 35.4249V28.3934H27.5631V34.9827C27.5631 35.5133 27.5728 35.9052 27.5898 36.1681C27.6482 36.9951 28.0326 37.5711 28.7428 37.8985C29.0347 38.0348 29.3533 38.1017 29.7085 38.1017C30.4966 38.1017 31.0876 37.8316 31.489 37.2915C31.7857 36.8923 31.9366 36.1204 31.9366 34.9827V28.3934H35.157V35.4249H35.1546Z" fill="#909092"/>
<path d="M50.0043 40.5897H42.9138V28.3934H46.1343V37.9559H50.0043V40.5897Z" fill="#909092"/>
<path d="M63.9053 40.5897H56.8149V28.3934H60.0354V37.9559H63.9053V40.5897Z" fill="#909092"/>
<path d="M73.6496 40.5897H70.4315V28.3934H73.6496V40.5897Z" fill="#909092"/>
<path d="M92.2795 28.3934L86.9911 40.5897H84.4861L79.271 28.3934H82.7806L85.7651 35.8073L88.7816 28.3934H92.2795Z" fill="#909092"/>
<path d="M104.106 40.5897H97.054V28.3934H104.106V31.0272H100.272V33.1304H103.901V35.7618H100.272V37.9559H104.106V40.5897Z" fill="#909092"/>
<path d="M121.498 40.5897H117.496L114.427 35.9268V40.5897H111.206V28.3934H116.219C117.686 28.3934 118.768 28.826 119.474 29.6912C120.04 30.3891 120.328 31.2088 120.328 32.1505C120.328 33.2332 120.002 34.0936 119.347 34.7389C118.929 35.15 118.352 35.4368 117.62 35.5993L121.5 40.5921L121.498 40.5897ZM116.973 32.3274C116.973 31.8924 116.812 31.5267 116.489 31.228C116.187 30.9483 115.699 30.8073 115.025 30.8073H114.424V33.8618H115.025C115.704 33.8618 116.195 33.7208 116.489 33.4411C116.812 33.1352 116.973 32.7647 116.973 32.3298V32.3274Z" fill="#909092"/>
</svg>
