<svg width="127" height="69" viewBox="0 0 127 69" fill="none" xmlns="http://www.w3.org/2000/svg">
<rect width="126.5" height="69" rx="4" fill="white"/>
<path d="M35.4469 47.4111H34.8166V43.6366H37.0935V43.9965H35.4469V47.4111Z" fill="#5A4739"/>
<path d="M41.2359 44.8998V47.4111H40.621V46.8742C40.3357 47.2942 39.9093 47.5013 39.3322 47.5013C38.8558 47.5013 38.4826 47.4022 38.2098 47.2071C37.9401 47.012 37.8052 46.7212 37.8052 46.334C37.8052 45.9708 37.9431 45.6828 38.2191 45.4788C38.4951 45.2717 38.8776 45.1698 39.3668 45.1698H40.621V44.8998C40.621 44.5667 40.5145 44.3115 40.3013 44.1317C40.0881 43.9516 39.8089 43.8615 39.4608 43.8615C39.0187 43.8615 38.6269 44.0176 38.2851 44.3265L38.0812 44.1075C38.4951 43.7145 38.9748 43.5194 39.5236 43.5194C40.0064 43.5194 40.4142 43.6396 40.7435 43.8796C41.0695 44.1136 41.2359 44.4526 41.2359 44.8998ZM40.621 46.1389V45.5119H39.4453C39.1222 45.5119 38.8715 45.584 38.6958 45.7279C38.5201 45.872 38.4323 46.076 38.4323 46.3371C38.4323 46.592 38.5233 46.793 38.7051 46.9402C38.8869 47.0871 39.119 47.1592 39.4044 47.1592C39.7682 47.1592 40.0629 47.0571 40.2918 46.85C40.5114 46.6371 40.621 46.4 40.621 46.1389Z" fill="#5A4739"/>
<path d="M43.8696 44.5726H43.8603L42.6247 47.4111H42.1544L43.9543 43.3814L45.7355 47.4111H45.0706L43.8696 44.5726Z" fill="#5A4739"/>
<path d="M50.188 45.545H46.9298C46.9298 45.9859 47.0586 46.3671 47.3125 46.688C47.5697 47.0031 47.905 47.1623 48.3285 47.1623C48.9085 47.1623 49.3759 46.9221 49.7365 46.4451L49.9841 46.6402C49.818 46.9012 49.5891 47.1111 49.2942 47.2672C48.9995 47.4261 48.6609 47.5043 48.2782 47.5043C47.6825 47.5043 47.1997 47.3212 46.8358 46.958C46.4658 46.589 46.2809 46.1089 46.2809 45.5208C46.2809 44.9388 46.472 44.4646 46.8515 44.1016C47.2308 43.7265 47.7043 43.5375 48.2657 43.5375C48.8238 43.5375 49.2817 43.7237 49.6391 44.0927C50.0062 44.4557 50.188 44.9419 50.188 45.545ZM46.9551 45.1938H49.5734C49.5513 44.8127 49.4166 44.4977 49.172 44.2486C48.9338 44.0026 48.6327 43.8826 48.2689 43.8826C47.905 43.8826 47.604 44.0145 47.3658 44.2817C47.1275 44.5397 46.9894 44.8459 46.9551 45.1938Z" fill="#5A4739"/>
<path d="M55.3219 45.5598C55.3219 46.1208 55.1398 46.5829 54.7762 46.946C54.4062 47.3151 53.9452 47.501 53.3932 47.501C52.7443 47.501 52.2707 47.255 51.9697 46.766V49.2533H51.3394V43.6363H51.9697V44.2815C52.2644 43.7863 52.7504 43.5403 53.4278 43.5403C53.9734 43.5403 54.4249 43.7295 54.7823 44.1106C55.143 44.4885 55.3219 44.9717 55.3219 45.5598ZM54.6633 45.5208C54.6633 45.0257 54.5441 44.6296 54.3088 44.3296C54.0738 44.0296 53.7381 43.8796 53.3085 43.8796C52.8885 43.8796 52.5561 44.0235 52.3115 44.3085C52.0669 44.5935 51.9444 44.9775 51.9444 45.4548C51.9444 45.9828 52.0669 46.3969 52.3083 46.7031C52.5497 47.009 52.8853 47.159 53.3181 47.159C53.7507 47.159 54.0831 47.0031 54.3152 46.6939C54.5473 46.3789 54.6633 45.9859 54.6633 45.5208Z" fill="#5A4739"/>
<path d="M60.0876 45.545H56.8297C56.8297 45.9859 56.9583 46.3671 57.2122 46.688C57.4693 47.0031 57.805 47.1623 58.2282 47.1623C58.8084 47.1623 59.2755 46.9221 59.6362 46.4451L59.884 46.6402C59.7177 46.9012 59.4887 47.1111 59.1941 47.2672C58.8992 47.4261 58.5606 47.5043 58.1781 47.5043C57.5822 47.5043 57.0993 47.3212 56.7387 46.958C56.3687 46.589 56.1837 46.1089 56.1837 45.5208C56.1837 44.9388 56.3751 44.4646 56.7544 44.1016C57.1339 43.7265 57.6072 43.5375 58.1685 43.5375C58.7267 43.5375 59.1845 43.7237 59.542 44.0927C59.9026 44.4557 60.0876 44.9419 60.0876 45.545ZM56.8547 45.1938H59.473C59.4512 44.8127 59.3163 44.4977 59.0717 44.2486C58.8334 44.0026 58.5324 43.8826 58.1685 43.8826C57.805 43.8826 57.5039 44.0145 57.2654 44.2817C57.024 44.5397 56.8893 44.8459 56.8547 45.1938Z" fill="#5A4739"/>
<path d="M62.5242 45.8211L61.5082 47.4114H60.74L61.9506 45.7131C61.4738 45.5121 61.2354 45.179 61.2354 44.717C61.2354 44.381 61.3639 44.1139 61.6242 43.9218C61.8814 43.7298 62.2327 43.6307 62.678 43.6307H63.8883V47.4086H63.258V45.8183H62.5242V45.8211ZM61.8688 44.72C61.8688 45.209 62.1355 45.4551 62.6716 45.4551H63.2612V43.9939H62.6716C62.1355 43.9939 61.8688 44.2369 61.8688 44.72Z" fill="#5A4739"/>
<path d="M69.4824 47.4111H67.7954V43.6366H69.2034C69.6517 43.6366 69.9905 43.7234 70.213 43.8976C70.4387 44.0716 70.5486 44.3115 70.5486 44.6146C70.5486 44.7738 70.5047 44.9238 70.4169 45.0677C70.3291 45.2118 70.2162 45.3168 70.0813 45.3827C70.3134 45.449 70.5047 45.5659 70.649 45.734C70.7933 45.9018 70.8654 46.103 70.8654 46.3371C70.8654 46.673 70.7398 46.9371 70.489 47.1292C70.238 47.3182 69.9027 47.4111 69.4824 47.4111ZM69.1156 43.9937H68.4257V45.2658H69.1499C69.3945 45.2658 69.5891 45.2118 69.7302 45.1039C69.8712 44.9959 69.9434 44.8487 69.9434 44.6627C69.9434 44.4618 69.8681 44.2995 69.7206 44.1765C69.5734 44.0535 69.3695 43.9937 69.1156 43.9937ZM69.3038 45.6168H68.4257V47.054H69.2095C69.5327 47.054 69.7834 46.9881 69.9652 46.8592C70.1441 46.727 70.2351 46.5469 70.2351 46.3129C70.2351 46.0938 70.1502 45.926 69.978 45.803C69.8055 45.68 69.5827 45.6168 69.3038 45.6168Z" fill="#5A4739"/>
<path d="M73.1324 45.2088L75.1957 47.4111H74.4212L72.5867 45.4699V47.4111H71.9564V43.6366H72.5867V45.1938L74.2926 43.6366H74.838L73.1324 45.2088Z" fill="#5A4739"/>
<path d="M79.0562 43.6366H79.517L76.8486 49.2566H76.3626L77.2657 47.3304L75.5095 43.6338H76.1837L77.5918 46.7003L79.0562 43.6366Z" fill="#5A4739"/>
<path d="M83.2676 46.6221L83.4965 46.85C83.0762 47.2853 82.5745 47.5043 81.9945 47.5043C81.3924 47.5043 80.9032 47.3154 80.5268 46.9402C80.1569 46.5592 79.9719 46.0849 79.9719 45.5208C79.9719 44.9449 80.1632 44.4707 80.5425 44.1016C80.9221 43.7206 81.4049 43.5316 81.9849 43.5316C82.5809 43.5316 83.0762 43.7535 83.4683 44.2007L83.2455 44.4136C82.9101 44.0596 82.5119 43.8826 82.0509 43.8826C81.6527 43.8826 81.3139 44.0237 81.035 44.3057C80.7621 44.5937 80.624 45.0017 80.624 45.53C80.624 46.0309 80.7621 46.427 81.035 46.7212C81.3139 47.0151 81.6557 47.1623 82.0666 47.1623C82.5181 47.1592 82.9162 46.9792 83.2676 46.6221Z" fill="#5A4739"/>
<path d="M88.4007 45.5208C88.4007 46.1028 88.2061 46.5801 87.8204 46.9491C87.4347 47.3182 86.9426 47.5041 86.3466 47.5041C85.7259 47.5041 85.2271 47.321 84.8447 46.958C84.4622 46.5948 84.274 46.1119 84.274 45.5147C84.274 44.9327 84.4715 44.4585 84.8635 44.0955C85.2681 43.7265 85.7635 43.5403 86.3562 43.5403C86.9237 43.5403 87.4065 43.7234 87.805 44.0864C88.2032 44.4496 88.4007 44.9266 88.4007 45.5208ZM86.3466 43.8943C85.9045 43.8943 85.5596 44.0504 85.315 44.3596C85.0642 44.6655 84.9389 45.0466 84.9389 45.5088C84.9389 45.9708 85.061 46.361 85.3057 46.6761C85.5503 46.985 85.8984 47.1411 86.3466 47.1411C86.7669 47.1411 87.1055 46.985 87.3626 46.6761C87.6197 46.361 87.7454 45.9708 87.7454 45.5088C87.7454 45.0466 87.6197 44.6625 87.369 44.3596C87.1244 44.0504 86.7826 43.8943 86.3466 43.8943Z" fill="#5A4739"/>
<path d="M91.1726 47.4111H89.4856V43.6366H90.8936C91.3421 43.6366 91.6807 43.7234 91.9032 43.8976C92.1292 44.0716 92.2389 44.3115 92.2389 44.6146C92.2389 44.7738 92.1949 44.9238 92.1071 45.0677C92.0193 45.2118 91.9064 45.3168 91.7717 45.3827C92.0036 45.449 92.1949 45.5659 92.3392 45.734C92.4835 45.9018 92.5556 46.103 92.5556 46.3371C92.5556 46.673 92.4302 46.9371 92.1792 47.1292C91.9285 47.3182 91.5929 47.4111 91.1726 47.4111ZM90.8058 43.9937H90.1159V45.2658H90.8404C91.0847 45.2658 91.2793 45.2118 91.4204 45.1039C91.5614 44.9959 91.6336 44.8487 91.6336 44.6627C91.6336 44.4618 91.5583 44.2995 91.4111 44.1765C91.2636 44.0535 91.0629 43.9937 90.8058 43.9937ZM90.994 45.6168H90.1159V47.054H90.8997C91.2229 47.054 91.4768 46.9881 91.6557 46.8592C91.8343 46.727 91.9253 46.5469 91.9253 46.3129C91.9253 46.0938 91.8407 45.926 91.6682 45.803C91.4957 45.68 91.2729 45.6168 90.994 45.6168Z" fill="#5A4739"/>
<path d="M68.9442 21.4796H73.892V19.7728H60.4645V21.4796H65.6892V36.7082H68.9442V21.4796Z" fill="#594639"/>
<path d="M83.2412 19.7433H81.9253L74.2921 36.6863H76.4467L77.3855 34.5675L78.0704 33.0299C80.6251 33.6845 83.2796 33.714 85.842 33.1476L86.4808 34.5675L87.4425 36.6863H90.8899L83.2412 19.7433ZM78.809 31.4039L81.9024 24.5104L85.1111 31.5216C83.0179 31.9411 80.8867 31.9042 78.809 31.4039Z" fill="#594639"/>
<path d="M99.439 21.4796H104.872V19.7728H91.3211V21.4796H96.184V36.7082H99.439V21.4796Z" fill="#594639"/>
<path d="M113.844 19.7433H112.528L104.895 36.6863H107.057L107.996 34.5675L108.68 33.0299C111.235 33.6845 113.882 33.714 116.452 33.1476L117.091 34.5675L118.053 36.6863H121.5L113.844 19.7433ZM109.412 31.4039L112.505 24.5104L115.713 31.5216C113.621 31.9411 111.489 31.9042 109.412 31.4039Z" fill="#594639"/>
<path d="M55.9785 19.7728H52.7006V26.7398H44.9287V19.7728H41.6737V36.7082H44.9287V28.4465H52.7006V36.7082H55.9785V19.7728Z" fill="#594639"/>
<path d="M19.2585 36.6715L10.5481 27.3136L18.2273 19.7801H15.8036L8.17796 27.2104V19.7801H5V36.6715H8.17796V28.4243L15.8496 36.6715H19.2585Z" fill="#594639"/>
<path d="M30.3775 19.7728H29.0618L21.4286 36.7156H23.5829L24.5217 34.5968L25.2066 33.0592C27.7613 33.714 30.4083 33.7436 32.9785 33.1769L33.617 34.5968L34.579 36.7156H38.0264L30.3775 19.7728ZM25.9455 31.4335L29.0386 24.54L32.2473 31.5512C30.1544 31.9704 28.0229 31.9337 25.9455 31.4335Z" fill="#594639"/>
</svg>
