<svg width="127" height="69" viewBox="0 0 127 69" fill="none" xmlns="http://www.w3.org/2000/svg">
<rect width="126.5" height="69" rx="4" fill="white"/>
<path fill-rule="evenodd" clip-rule="evenodd" d="M12.3241 34.5001H12.2818C12.2818 34.4785 12.2818 34.4785 12.2818 34.457C11.9016 32.7121 12.472 30.5363 13.9297 28.7483C14.648 27.8651 15.5353 27.1542 16.5494 26.6587C16.8241 26.5295 17.1198 26.4218 17.4156 26.3141C17.986 26.1417 18.5776 26.0556 19.1903 26.0771C19.3804 26.9819 19.3593 27.9297 19.1058 28.8345C18.81 29.9332 18.2818 30.9456 17.5424 31.8289C16.5494 33.0352 15.3029 33.8754 14.0565 34.2416C13.4861 34.4355 12.9156 34.5216 12.3241 34.5001Z" fill="white"/>
<path fill-rule="evenodd" clip-rule="evenodd" d="M19.3593 33.1429C18.303 33.466 17.2044 33.5091 16.1269 33.2506C15.9579 33.2075 15.81 33.1644 15.641 33.1213H15.6199C15.641 32.949 15.6621 32.7766 15.7044 32.6043C16.1903 30.3424 17.8382 28.5113 19.9931 27.8004C20.0354 27.7789 20.0987 27.7573 20.141 27.7573C20.8382 27.5419 21.5776 27.4557 22.2959 27.4988H22.4015C22.8875 27.5204 23.3734 27.6281 23.817 27.7789L23.8593 27.8004C24.1128 27.8866 24.3452 27.9943 24.5565 28.1451C24.5565 28.1451 23.9015 28.4467 23.2255 29.8254C22.4649 31.4195 21.0494 32.6258 19.3593 33.1429Z" fill="white"/>
<path fill-rule="evenodd" clip-rule="evenodd" d="M16.6757 29.1575C16.3588 31.4625 14.88 33.4229 12.7673 34.3061C12.6194 34.3707 12.4504 34.4353 12.2814 34.4784C12.2814 34.4569 12.2603 34.4569 12.2603 34.4353C12.1758 34.2845 12.1124 34.1338 12.049 33.983C10.9293 31.204 11.7955 28.0158 14.1405 26.2062C15.3659 25.2799 15.5349 24.5906 15.5349 24.5906C15.725 24.7845 15.8729 24.9999 15.9997 25.2368L16.0208 25.2799C16.2532 25.7108 16.4222 26.1847 16.5279 26.6586C16.549 26.7448 16.549 26.7879 16.549 26.7879C16.7602 27.5634 16.7814 28.382 16.6757 29.1575Z" fill="white"/>
<path fill-rule="evenodd" clip-rule="evenodd" d="M9.30299 42.2983C9.34524 41.0919 9.55651 39.9071 9.93679 38.7869C10.465 37.3005 11.2255 35.8356 12.2819 34.6508L12.134 34.5C10.9509 35.6417 9.89454 36.9773 9.23961 38.5068C8.94384 39.2177 8.71144 39.9502 8.54243 40.7041C8.4368 39.3254 7.61286 38.0975 6.40864 37.4728C6.13399 37.322 5.83821 37.2359 5.52131 37.1712H5.50019C5.3523 37.1497 5.18329 37.1281 5.0354 37.1497C5.0354 37.1497 5.28892 37.4944 5.24667 38.4207C5.16216 40.144 6.07061 42.7076 9.30299 42.2983Z" fill="white"/>
<path opacity="0.4" fill-rule="evenodd" clip-rule="evenodd" d="M12.3241 34.5001H12.2818C12.2818 34.4785 12.2818 34.4785 12.2818 34.457C11.9016 32.7121 12.472 30.5363 13.9297 28.7483C14.648 27.8651 15.5353 27.1542 16.5494 26.6587C16.8241 26.5295 17.1198 26.4218 17.4156 26.3141C17.986 26.1417 18.5776 26.0556 19.1903 26.0771C19.3804 26.9819 19.3593 27.9297 19.1058 28.8345C18.81 29.9332 18.2818 30.9456 17.5424 31.8289C16.5494 33.0352 15.3029 33.8754 14.0565 34.2416C13.4861 34.4355 12.9156 34.5216 12.3241 34.5001Z" fill="#A476AD"/>
<path opacity="0.4" fill-rule="evenodd" clip-rule="evenodd" d="M19.3593 33.1429C18.303 33.466 17.2044 33.5091 16.1269 33.2506C15.9579 33.2075 15.81 33.1644 15.641 33.1213H15.6199C15.641 32.949 15.6621 32.7766 15.7044 32.6043C16.1903 30.3424 17.8382 28.5113 19.9931 27.8004C20.0354 27.7789 20.0987 27.7573 20.141 27.7573C20.8382 27.5419 21.5776 27.4557 22.2959 27.4988H22.4015C22.8875 27.5204 23.3734 27.6281 23.817 27.7789L23.8593 27.8004C24.1128 27.8866 24.3452 27.9943 24.5565 28.1451C24.5565 28.1451 23.9015 28.4467 23.2255 29.8254C22.4649 31.4195 21.0494 32.6258 19.3593 33.1429Z" fill="#A476AD"/>
<path opacity="0.4" fill-rule="evenodd" clip-rule="evenodd" d="M16.6757 29.1575C16.3588 31.4625 14.88 33.4229 12.7673 34.3061C12.6194 34.3707 12.4504 34.4353 12.2814 34.4784C12.2814 34.4569 12.2603 34.4569 12.2603 34.4353C12.1758 34.2845 12.1124 34.1338 12.049 33.983C10.9293 31.204 11.7955 28.0158 14.1405 26.2062C15.3659 25.2799 15.5349 24.5906 15.5349 24.5906C15.725 24.7845 15.8729 24.9999 15.9997 25.2368L16.0208 25.2799C16.2532 25.7108 16.4222 26.1847 16.5279 26.6586C16.549 26.7448 16.549 26.7879 16.549 26.7879C16.7602 27.5634 16.7814 28.382 16.6757 29.1575Z" fill="#A476AD"/>
<path fill-rule="evenodd" clip-rule="evenodd" d="M9.30299 42.2983C9.34524 41.0919 9.55651 39.9071 9.93679 38.7869C10.465 37.3005 11.2255 35.8356 12.2819 34.6508L12.134 34.5C10.9509 35.6417 9.89454 36.9773 9.23961 38.5068C8.94384 39.2177 8.71144 39.9502 8.54243 40.7041C8.4368 39.3254 7.61286 38.0975 6.40864 37.4728C6.13399 37.322 5.83821 37.2359 5.52131 37.1712H5.50019C5.3523 37.1497 5.18329 37.1281 5.0354 37.1497C5.0354 37.1497 5.28892 37.4944 5.24667 38.4207C5.16216 40.144 6.07061 42.7076 9.30299 42.2983Z" fill="#9BD3D2"/>
<path fill-rule="evenodd" clip-rule="evenodd" d="M26.6694 38.4423C26.9018 38.4423 27.1342 38.3992 27.3243 38.2915C27.5145 38.1838 27.7046 38.0545 27.8525 37.8822C28.0004 37.7098 28.1272 37.516 28.1905 37.3005C28.3596 36.8697 28.3596 36.3742 28.1905 35.9434C28.106 35.728 28.0004 35.5341 27.8525 35.3617C27.7046 35.1894 27.5356 35.0601 27.3243 34.9524C27.1131 34.8447 26.9018 34.8016 26.6694 34.8016H25.106V38.4638L26.6694 38.4423ZM35.775 40.2087H38.6271L37.2116 36.4819L35.775 40.2087ZM33.937 41.8675L37.1905 33.7245L40.444 41.8675H39.2609L39.0285 41.2212H35.3736L35.1201 41.8675H33.937ZM45.937 36.762V41.9106H44.8384V33.6168L49.9933 39.9071V33.7676H51.0919V41.9106H50.0144L45.937 36.762ZM58.1693 40.8334C58.5496 40.8334 58.9299 40.7473 59.289 40.5965C59.627 40.4457 59.9228 40.2303 60.1763 39.9502C60.4299 39.6702 60.62 39.347 60.7468 38.9808C61.0214 38.2268 61.0214 37.3867 60.7468 36.6327C60.62 36.288 60.4087 35.9434 60.1552 35.6633C59.9017 35.3833 59.6059 35.1679 59.2679 35.0171C58.9087 34.8663 58.5496 34.7801 58.1482 34.7801H56.6482V40.8119L58.1693 40.8334ZM58.2961 33.7461C58.8242 33.7461 59.3313 33.8538 59.7961 34.0692C60.2608 34.2846 60.6623 34.5862 61.0214 34.9524C61.3806 35.3187 61.6552 35.771 61.8453 36.245C62.0566 36.7404 62.1623 37.279 62.1411 37.8391C62.1411 38.3776 62.0355 38.9162 61.8453 39.4332C61.6552 39.9071 61.3806 40.338 61.0425 40.7257C60.7045 41.0919 60.282 41.3935 59.8172 41.5874C59.3313 41.8028 58.8031 41.9106 58.2749 41.9106H55.4862V33.7461H58.2961ZM67.6974 38.7654V40.7042H71.2467V41.8675H66.5355V33.7676H71.1622V34.9094H67.6974V37.6883H70.8242V38.8085L67.6974 38.7654ZM93.7466 40.7688C94.1269 40.7688 94.4861 40.6826 94.8241 40.5319C95.1621 40.3811 95.4579 40.1656 95.7114 39.9071C95.965 39.6271 96.1762 39.3255 96.303 38.9593C96.4509 38.5931 96.5142 38.2053 96.5142 37.8175C96.5142 37.042 96.2185 36.288 95.7114 35.7064C95.4579 35.4264 95.1621 35.2109 94.8241 35.0601C94.4861 34.9094 94.1269 34.8232 93.7466 34.8232C93.3875 34.8232 93.0072 34.9094 92.6692 35.0601C92.3312 35.2109 92.0354 35.4264 91.803 35.7064C91.2748 36.2665 90.979 37.0205 91.0002 37.8175C91.0002 38.5931 91.296 39.347 91.803 39.9071C92.0565 40.1656 92.3523 40.3811 92.6692 40.5319C93.0072 40.7042 93.3875 40.7688 93.7466 40.7688ZM93.7466 33.703C94.2748 33.703 94.803 33.8107 95.31 34.0261C96.7889 34.6724 97.7396 36.1588 97.7396 37.8175C97.7396 38.3561 97.634 38.8946 97.4227 39.4117C97.0213 40.3811 96.2607 41.1781 95.31 41.5874C94.8241 41.8028 94.2959 41.9106 93.7466 41.9106C93.2185 41.9106 92.6903 41.8028 92.1833 41.5874C91.2326 41.1781 90.472 40.3811 90.0706 39.4117C89.8593 38.9162 89.7537 38.3776 89.7537 37.8175C89.7326 36.1803 90.7044 34.6724 92.1833 34.0261C92.6903 33.8107 93.2185 33.703 93.7466 33.703ZM106.106 40.7688C106.465 40.7688 106.845 40.6826 107.183 40.5319C107.521 40.3811 107.817 40.1656 108.071 39.9071C108.599 39.347 108.894 38.5931 108.873 37.8175C108.873 37.042 108.578 36.288 108.071 35.7064C107.817 35.4264 107.521 35.2109 107.183 35.0601C106.845 34.9094 106.486 34.8232 106.106 34.8232C105.747 34.8232 105.366 34.9094 105.028 35.0601C104.69 35.2109 104.394 35.4264 104.141 35.7064C103.613 36.2665 103.338 37.0205 103.338 37.8175C103.338 38.5931 103.634 39.347 104.141 39.9071C104.394 40.1656 104.69 40.3811 105.028 40.5319C105.366 40.7042 105.725 40.7688 106.106 40.7688ZM106.106 33.703C106.634 33.703 107.162 33.8107 107.669 34.0261C108.134 34.2415 108.578 34.5216 108.937 34.9094C109.676 35.6849 110.099 36.7189 110.099 37.8175C110.099 38.3561 109.993 38.8946 109.782 39.4117C109.592 39.9071 109.296 40.338 108.937 40.7257C108.578 41.0919 108.134 41.3935 107.669 41.609C106.676 42.0398 105.556 42.0398 104.564 41.609C103.613 41.1997 102.852 40.4026 102.451 39.4332C102.24 38.9377 102.134 38.3992 102.134 37.8391C102.113 36.2019 103.064 34.6939 104.542 34.0477C105.049 33.8107 105.578 33.703 106.106 33.703ZM78.3242 38.9593L80.3523 33.8753L82.3805 38.9593L84.4086 33.8538H85.6129L82.3594 42.0183L80.3312 36.9128L78.303 42.0183L75.0918 33.8538H76.296L78.3242 38.9593ZM29.437 37.4298C29.3314 37.7529 29.1835 38.0545 28.9934 38.3346C28.7821 38.6146 28.5497 38.83 28.2539 39.0024C28.2328 39.0239 28.2117 39.0239 28.1905 39.0454C28.1694 39.0454 28.1483 39.067 28.1272 39.0885L29.5426 41.9106H28.3173L27.092 39.4547C27.0074 39.4763 26.9229 39.4763 26.8384 39.4978C26.7539 39.4978 26.6483 39.5194 26.5638 39.5194H25.1483V41.9321H23.9863V33.7245H26.5849C26.9018 33.7245 27.1976 33.7676 27.5145 33.8538C27.7891 33.94 28.0638 34.0477 28.2962 34.1985C28.8666 34.5647 29.2891 35.1248 29.4793 35.7926C29.4793 35.8357 29.5004 35.8572 29.5004 35.9003C29.5004 35.9434 29.5215 35.9649 29.5426 36.008V36.0726C29.5638 36.1157 29.5638 36.1588 29.5638 36.2019C29.5638 36.245 29.5638 36.288 29.5849 36.3311C29.5849 36.3742 29.5849 36.4173 29.5849 36.4604V36.762C29.5849 36.8051 29.5849 36.8481 29.5849 36.8912V36.9128C29.5849 36.9559 29.5638 36.9989 29.5638 37.042C29.5638 37.0851 29.5426 37.1282 29.5426 37.1713V37.2144C29.4581 37.3005 29.437 37.3652 29.437 37.4298Z" fill="#303030"/>
<path fill-rule="evenodd" clip-rule="evenodd" d="M114.873 35.9864C114.978 35.9864 115.105 35.9649 115.19 35.9002C115.295 35.8572 115.38 35.7925 115.443 35.7064C115.507 35.6202 115.57 35.534 115.612 35.4263C115.697 35.2109 115.697 34.9739 115.612 34.7585C115.57 34.6508 115.507 34.5646 115.443 34.4785C115.38 34.3923 115.274 34.3277 115.19 34.2846C115.084 34.2415 114.978 34.1984 114.873 34.1984H114.112V35.9864H114.873ZM116.225 35.4909C116.119 35.8141 115.929 36.0941 115.633 36.2665L115.612 36.288C115.612 36.288 115.591 36.288 115.591 36.3095L116.288 37.6882H115.676L115.063 36.4819C115.021 36.4819 114.978 36.5034 114.936 36.5034C114.894 36.5034 114.852 36.5034 114.788 36.5034H114.091V37.6882H113.521V33.6814H114.788C115.084 33.6814 115.38 33.7676 115.633 33.9184C115.908 34.0907 116.119 34.3707 116.225 34.6939C116.225 34.7154 116.225 34.737 116.246 34.737C116.246 34.7585 116.246 34.78 116.267 34.78V34.8016C116.267 34.8231 116.288 34.8447 116.288 34.8662V34.9308C116.288 34.9524 116.288 34.9739 116.288 34.9955V35.1463C116.288 35.1678 116.288 35.1893 116.288 35.2109V35.2755C116.288 35.2971 116.288 35.3186 116.267 35.3401V35.3617C116.225 35.4263 116.225 35.4694 116.225 35.4909Z" fill="#303030"/>
<path d="M118.254 33.703H118.887V36.1373C118.887 36.5035 118.972 36.762 119.141 36.9559C119.564 37.3221 120.176 37.3221 120.62 36.9559C120.789 36.762 120.873 36.5035 120.873 36.1373V33.703H121.528V36.2019C121.528 36.7404 121.402 37.1497 121.127 37.4298C120.852 37.7098 120.451 37.8391 119.902 37.8391C119.352 37.8391 118.951 37.7098 118.697 37.4513C118.444 37.1928 118.296 36.762 118.296 36.2234V33.703H118.254Z" fill="#303030"/>
<path d="M108.789 46.1975C108.662 46.5637 108.535 46.9084 108.408 47.2099L108.303 47.49H109.275L109.169 47.2099C109.042 46.9084 108.915 46.5637 108.789 46.1975ZM107.437 48.7179L108.62 45.7451H108.937L110.12 48.7179H109.739L109.38 47.8131H108.155L107.796 48.7179H107.437ZM103.782 48.7179V45.7451H104.141V47.2099L105.493 45.7451H105.937L104.563 47.2315L106.042 48.7394H105.577L104.162 47.2746V48.7394H103.782V48.7179ZM101.437 45.7451H101.796V48.7179H101.437V47.3607C101.437 46.8653 101.437 46.4991 101.458 46.2405H101.437C101.31 46.456 101.141 46.7145 100.908 47.0592L99.7676 48.7179H99.4084V45.7451H99.7676V47.253C99.7676 47.6408 99.7676 47.9639 99.7464 48.2224H99.7676C99.8943 48.007 100.063 47.7485 100.296 47.4038L101.437 45.7451ZM96.7464 48.7179H96.3873V46.0682H95.4155V45.7451H97.7183V46.0682H96.7464V48.7179ZM92.331 48.3948H93.831V48.7179H91.9718V45.7451H93.7465V46.0682H92.331V47.0376H93.5986V47.3607H92.331V48.3948ZM88.5915 48.7179H88.4225L87.6831 46.9299C87.5775 46.6929 87.4718 46.4129 87.3662 46.1328H87.3451C87.3662 46.5421 87.3662 46.9299 87.3662 47.2746V48.7179H87.007V45.7451H87.5352L88.2324 47.4254C88.3169 47.6192 88.4014 47.8562 88.4859 48.1147H88.507C88.6127 47.8131 88.6972 47.5762 88.7606 47.4254L89.4577 45.7451H89.9859V48.7179H89.6268V47.2746C89.6268 46.9299 89.6268 46.5637 89.6479 46.1328H89.6268C89.5211 46.4344 89.4155 46.7145 89.331 46.9299L88.5915 48.7179ZM84.5775 46.0036C84.4296 46.0036 84.2606 46.0251 84.1338 46.0898C84.0071 46.1328 83.8803 46.219 83.7747 46.3267C83.669 46.4344 83.5845 46.5852 83.5211 46.7145C83.4578 46.8868 83.4366 47.0807 83.4366 47.253C83.4366 47.4254 83.4578 47.6192 83.5211 47.7916C83.5634 47.9424 83.6479 48.0501 83.7535 48.1578C83.8592 48.2655 83.9859 48.3301 84.1127 48.3732C84.2606 48.4163 84.4296 48.4378 84.5986 48.4378C84.6409 48.4378 84.7042 48.4378 84.7465 48.4378C84.7887 48.4378 84.8521 48.4163 84.9155 48.4163C84.9789 48.4163 85.0211 48.3948 85.0845 48.3732C85.1268 48.3517 85.1902 48.3517 85.2324 48.3301V48.6533C85.1268 48.6964 85.0423 48.7179 84.9366 48.7394C84.831 48.761 84.7042 48.761 84.5775 48.761C84.3662 48.761 84.1338 48.7394 83.9226 48.6533C83.5634 48.524 83.2888 48.244 83.162 47.8778C83.0986 47.6839 83.0564 47.4685 83.0564 47.253C83.0564 47.0376 83.0986 46.8222 83.162 46.6068C83.2254 46.4129 83.331 46.2405 83.4578 46.1113C83.5845 45.9605 83.7535 45.8528 83.9226 45.7882C84.1127 45.702 84.324 45.6589 84.5564 45.6805C84.6197 45.6805 84.6831 45.6805 84.7465 45.6805C84.8099 45.6805 84.8733 45.702 84.9155 45.702C84.9578 45.702 85.0211 45.7235 85.0634 45.7451C85.1057 45.7666 85.1479 45.7666 85.1902 45.7882V46.1113C85.1056 46.0898 85 46.0467 84.8944 46.0467C84.7887 46.0036 84.6831 46.0036 84.5775 46.0036ZM81.2817 47.2315C81.2817 47.4469 81.2606 47.6623 81.1761 47.8562C81.1127 48.0285 81.0282 48.2009 80.9014 48.3517C80.7747 48.4809 80.6268 48.5886 80.4789 48.6748C80.3099 48.761 80.0986 48.7825 79.9085 48.7825C79.7183 48.7825 79.5071 48.7394 79.3381 48.6748C79.1691 48.6102 79.0212 48.5025 78.8944 48.3517C78.7676 48.2009 78.6831 48.0501 78.6198 47.8562C78.5564 47.6623 78.5141 47.4469 78.5352 47.2315C78.5352 47.0161 78.5564 46.8006 78.6409 46.6068C78.7043 46.4344 78.7888 46.2621 78.9155 46.1113C79.0423 45.982 79.1902 45.8743 79.3381 45.7882C79.5071 45.702 79.7183 45.6805 79.9085 45.6805C80.0986 45.6805 80.3099 45.7235 80.4789 45.7882C80.6479 45.8528 80.7958 45.9605 80.9014 46.1113C81.0282 46.2621 81.1127 46.4129 81.1761 46.6068C81.2606 46.8006 81.2817 47.0161 81.2817 47.2315ZM80.9014 47.2315C80.9014 47.0591 80.8803 46.8653 80.8169 46.6929C80.7747 46.5421 80.6902 46.4129 80.6057 46.3052C80.5212 46.1975 80.4155 46.1328 80.2888 46.0682C80.0352 45.9605 79.7606 45.9605 79.5071 46.0682C79.3803 46.1113 79.2747 46.1975 79.1902 46.3052C79.1057 46.4129 79.0212 46.5421 78.9789 46.6929C78.8733 47.0376 78.8733 47.4038 78.9789 47.7485C79.0212 47.8993 79.1057 48.0285 79.1902 48.1363C79.2747 48.244 79.3803 48.3086 79.5071 48.3732C79.6338 48.4163 79.7606 48.4594 79.8874 48.4594C80.0141 48.4594 80.162 48.4378 80.2676 48.3732C80.3944 48.3301 80.5 48.244 80.5845 48.1363C80.669 48.0285 80.7536 47.8993 80.7958 47.7485C80.8803 47.5762 80.9014 47.4038 80.9014 47.2315ZM74.9226 48.7179V45.7451H75.2817V47.2099L76.6338 45.7451H77.0775L75.7254 47.2315L77.2043 48.7394H76.7395L75.324 47.2746V48.7394L74.9226 48.7179ZM70.7818 45.7451H71.1409V48.7179H70.7818V47.3823C70.7818 46.8868 70.7818 46.5206 70.8029 46.2621H70.7818C70.655 46.4775 70.486 46.736 70.2536 47.0807L69.1128 48.7394H68.7536V45.7666H69.1128V47.2746C69.1128 47.6623 69.1128 47.9855 69.0916 48.244H69.1128C69.2395 48.0285 69.4085 47.77 69.6409 47.4254L70.7818 45.7451ZM63.979 46.0682C63.81 46.0467 63.6198 46.1113 63.4719 46.219C63.3452 46.3267 63.2818 46.4991 63.3029 46.6498C63.3029 46.8006 63.3452 46.9514 63.4719 47.0592C63.5987 47.1669 63.7677 47.2099 63.9578 47.2099H64.6339V46.0682H63.979ZM62.817 48.7179L63.5353 47.49C63.4297 47.4685 63.3452 47.4254 63.2607 47.3607C63.1973 47.3177 63.1339 47.253 63.0705 47.1669C63.0283 47.1022 62.986 47.0161 62.9649 46.9299C62.9438 46.8437 62.9226 46.7576 62.9226 46.6714C62.9226 46.5421 62.9438 46.4129 62.986 46.3052C63.0283 46.1975 63.0916 46.0898 63.1762 46.0036C63.2607 45.9174 63.3874 45.8528 63.4931 45.8097C63.6409 45.7666 63.7888 45.7451 63.9367 45.7451H64.9719V48.7179H64.6128V47.5331H63.8945L63.2184 48.7179H62.817ZM60.641 45.7451H61.0001V48.7179H60.641V47.3823C60.641 46.8868 60.641 46.5206 60.6621 46.2621C60.5353 46.4775 60.3663 46.736 60.1339 47.0807L58.9719 48.7394H58.6128V45.7666H58.9719V47.2746C58.9719 47.6623 58.9719 47.9855 58.9508 48.244H58.9719C59.0987 48.0285 59.2677 47.77 59.5001 47.4254L60.641 45.7451ZM55.1903 47.1669C55.2325 47.1669 55.2959 47.1669 55.3382 47.1884C55.4015 47.1884 55.4438 47.1884 55.486 47.1884C55.6339 47.1884 55.7818 47.1669 55.9086 47.1453C56.0142 47.1238 56.0987 47.0807 56.2043 47.0376C56.2677 46.9945 56.3311 46.9299 56.3734 46.8437C56.4156 46.7576 56.4156 46.6714 56.4156 46.5852C56.4156 46.4775 56.3945 46.3913 56.3311 46.3052C56.2677 46.219 56.1832 46.1759 56.0987 46.1328C56.0353 46.1113 55.9508 46.0898 55.8875 46.0898C55.8029 46.0898 55.6973 46.0682 55.6128 46.0682H55.1903V47.1669ZM55.1903 48.7179H54.8311V45.7451H55.6339C55.7396 45.7451 55.8663 45.7451 55.972 45.7666C56.0776 45.7882 56.1621 45.8097 56.2466 45.8312C56.3945 45.8743 56.5424 45.982 56.648 46.1113C56.7325 46.2405 56.7959 46.4129 56.7748 46.5852C56.7748 46.7145 56.7536 46.8653 56.6903 46.973C56.6269 47.0807 56.5424 47.1884 56.4367 47.253C56.31 47.3392 56.1832 47.4038 56.0353 47.4254C55.8663 47.4685 55.6762 47.49 55.486 47.49C55.3804 47.49 55.2959 47.49 55.1903 47.4685V48.7179ZM51.472 48.3948H52.972V48.7179H51.1128V45.7451H52.8875V46.0682H51.472V47.0376H52.7396V47.3607H51.472V48.3948ZM47.7326 48.7179H47.5635L46.8241 46.9299C46.7185 46.6929 46.6128 46.4129 46.5283 46.1328H46.5072C46.5283 46.5421 46.5283 46.9299 46.5283 47.2746V48.7179H46.1692V45.7451H46.6973L47.3945 47.4254C47.479 47.6192 47.5635 47.8562 47.648 48.1147H47.6692C47.7748 47.8131 47.8593 47.5762 47.9227 47.4254L48.6199 45.7451H49.148V48.7179H48.7889V47.2746C48.7889 46.9299 48.7889 46.5637 48.81 46.1328H48.7889C48.6833 46.4344 48.5776 46.7145 48.472 46.9299L47.7326 48.7179ZM43.9298 47.2315C43.9298 47.0591 43.9086 46.8653 43.8664 46.6929C43.8241 46.5637 43.7607 46.4129 43.6762 46.3052C43.5917 46.1975 43.5072 46.1328 43.3805 46.0682C43.1481 45.9605 42.8734 45.9605 42.6621 46.0682C42.5565 46.1328 42.4509 46.1975 42.3664 46.3052C42.2819 46.4129 42.2185 46.5421 42.1762 46.6929C42.0917 47.0376 42.0917 47.4038 42.1762 47.7485C42.2185 47.8778 42.2819 48.007 42.3664 48.1363C42.4509 48.244 42.5354 48.3086 42.6621 48.3732C42.7678 48.4378 42.8945 48.4594 43.0213 48.4594C43.1481 48.4594 43.2748 48.4378 43.3805 48.3732C43.4861 48.3086 43.5917 48.244 43.6762 48.1363C43.7607 48.0285 43.8241 47.8993 43.8664 47.7485C43.9086 47.5762 43.9298 47.4038 43.9298 47.2315ZM44.31 47.2315C44.31 47.4469 44.2889 47.6408 44.2255 47.8347C44.1833 48.007 44.0988 48.1793 43.972 48.3301C43.8664 48.4594 43.7185 48.5886 43.5706 48.6533C43.4016 48.7394 43.2114 48.7825 43.0213 48.7825C42.8312 48.7825 42.6621 48.7394 42.4931 48.6748C42.3452 48.6102 42.2185 48.5025 42.1129 48.3732C42.0072 48.244 41.9227 48.0932 41.8593 47.9208C41.796 47.7485 41.7537 47.5546 41.7537 47.3607H41.141V48.7179H40.7819V45.7451H41.141V47.0376H41.7537C41.7748 46.8437 41.8171 46.6714 41.8805 46.4991C41.9438 46.3483 42.0283 46.1975 42.134 46.0682C42.2396 45.939 42.3664 45.8528 42.5143 45.7882C42.8523 45.6589 43.2326 45.6589 43.5917 45.8097C43.7396 45.8959 43.8875 46.0036 43.9931 46.1328C44.0988 46.2836 44.1833 46.456 44.2467 46.6283C44.2678 46.8222 44.31 47.0161 44.31 47.2315ZM38.5424 47.2315C38.5424 47.0807 38.5213 46.9514 38.4791 46.8006C38.3946 46.5637 38.2255 46.3913 38.0143 46.3052C37.9086 46.2621 37.7819 46.2405 37.6551 46.219V48.244C37.7819 48.244 37.9086 48.2009 38.0143 48.1578C38.1199 48.1147 38.2255 48.0501 38.2889 47.9639C38.3734 47.8778 38.4368 47.77 38.4791 47.6623C38.5424 47.5115 38.5636 47.3823 38.5424 47.2315ZM36.4087 47.2315C36.4087 47.3823 36.4298 47.5115 36.472 47.6623C36.5143 47.77 36.5777 47.8778 36.6622 47.9639C36.7467 48.0501 36.8312 48.1147 36.9368 48.1578C37.0425 48.2009 37.1692 48.244 37.296 48.244V46.219C37.1692 46.219 37.0425 46.2621 36.9368 46.3052C36.8312 46.3483 36.7256 46.4129 36.6622 46.4991C36.5777 46.5852 36.5143 46.6929 36.472 46.8006C36.4298 46.9299 36.4087 47.0807 36.4087 47.2315ZM37.3171 48.9549V48.5456C37.127 48.5456 36.9368 48.4809 36.7678 48.4163C36.6199 48.3517 36.4932 48.2655 36.3664 48.1363C36.2608 48.0285 36.1763 47.8778 36.134 47.727C36.0706 47.5546 36.0495 47.3823 36.0495 47.2099C36.0495 47.0376 36.0706 46.8653 36.134 46.6929C36.1974 46.5421 36.2608 46.4129 36.3875 46.2836C36.4932 46.1544 36.641 46.0682 36.7889 46.0036C36.9579 45.9174 37.1481 45.8743 37.3171 45.8743V45.4866H37.6551V45.8743C37.8453 45.8743 38.0354 45.939 38.2044 46.0036C38.3523 46.0682 38.4791 46.1759 38.5847 46.2836C38.6903 46.3913 38.7748 46.5421 38.8171 46.6929C38.8805 46.8653 38.9016 47.0376 38.9016 47.2099C38.9016 47.3823 38.8805 47.5546 38.8171 47.727C38.7537 47.8778 38.6903 48.007 38.5636 48.1363C38.4579 48.2655 38.3101 48.3517 38.1622 48.4163C37.9932 48.5025 37.803 48.5456 37.634 48.5456V48.9549H37.3171ZM32.7326 47.1669C32.7749 47.1669 32.8382 47.1669 32.8805 47.1884C32.9227 47.2099 32.9861 47.1884 33.0284 47.1884C33.1763 47.1884 33.3242 47.1669 33.4509 47.1453C33.5565 47.1238 33.6411 47.0807 33.7467 47.0376C33.8101 46.9945 33.8735 46.9299 33.9157 46.8437C33.958 46.7576 33.958 46.6714 33.958 46.5852C33.958 46.4775 33.9368 46.3913 33.8734 46.3052C33.8101 46.219 33.7256 46.1759 33.6411 46.1328C33.5777 46.1113 33.4932 46.0898 33.4298 46.0898C33.3453 46.0898 33.2396 46.0682 33.1551 46.0682H32.7537L32.7326 47.1669ZM32.7326 48.7179H32.3735V45.7451H33.1763C33.2819 45.7451 33.4087 45.7451 33.5143 45.7666C33.6199 45.7882 33.7044 45.8097 33.7889 45.8312C33.9368 45.8743 34.0847 45.982 34.1903 46.1113C34.2749 46.2405 34.3382 46.4129 34.3171 46.5852C34.3171 46.7145 34.296 46.8653 34.2326 46.973C34.1692 47.0807 34.0847 47.1884 33.9791 47.253C33.8523 47.3392 33.7044 47.4038 33.5777 47.4254C33.4087 47.4685 33.2185 47.49 33.0284 47.49C32.9227 47.49 32.8382 47.49 32.7326 47.4685V48.7179ZM29.3312 46.1975C29.2045 46.5637 29.0777 46.9084 28.9509 47.2099L28.8453 47.49H29.8171L29.7115 47.2099C29.5847 46.9084 29.4791 46.5637 29.3312 46.1975ZM28.0002 48.7179L29.1833 45.7451H29.5002L30.6833 48.7179H30.303L29.9439 47.8131H28.7185L28.3594 48.7179H28.0002ZM26.3101 45.7451V48.7179H25.9509V46.0682H24.451V48.7179H24.0918V45.7451H26.3101Z" fill="#303030"/>
<path fill-rule="evenodd" clip-rule="evenodd" d="M30.6198 23.6428C29.8381 23.6643 29.0564 23.4704 28.3593 23.1042C28.2536 23.0396 28.148 22.975 28.0424 22.9104H28.0212C28.0635 22.8026 28.1269 22.6734 28.1691 22.5657C28.9297 21.0793 30.4086 20.1314 32.0353 20.0668H32.1409C32.6691 20.0452 33.1973 20.1314 33.7043 20.3038L33.7888 20.3253C34.1269 20.433 34.4437 20.6053 34.7184 20.7992L34.7395 20.8208C34.8874 20.9285 35.0353 21.0577 35.1621 21.2085C35.1621 21.2085 34.655 21.2947 33.9367 22.1133C33.0916 23.0396 31.8874 23.5997 30.6198 23.6428ZM28.0424 22.8888C28.0635 22.7596 28.1269 22.6518 28.1903 22.5441C28.9508 21.0793 30.4297 20.1099 32.0564 20.0452H32.1621C32.6902 20.0237 33.2184 20.1099 33.7254 20.2822L33.81 20.3038C34.148 20.4115 34.4649 20.5838 34.7395 20.7777L34.7607 20.7992C34.9085 20.9069 35.0564 21.0362 35.1832 21.187C31.7395 20.433 30.4931 22.5872 28.0424 22.8888Z" fill="white"/>
<path fill-rule="evenodd" clip-rule="evenodd" d="M30.6198 23.6427C29.8381 23.6643 29.0564 23.4704 28.3593 23.1042C28.2536 23.0395 28.148 22.9749 28.0424 22.9103H28.0212C28.0635 22.8026 28.1269 22.6733 28.1691 22.5656C28.9297 21.0792 30.4086 20.1314 32.0353 20.0667H32.1409C32.6691 20.0452 33.1973 20.1314 33.7043 20.3037L33.7888 20.3252C34.1269 20.4329 34.4438 20.6053 34.7184 20.7992L34.7395 20.8207C34.8874 20.9284 35.0353 21.0577 35.1621 21.2085C35.1621 21.2085 34.655 21.2946 33.9367 22.1132C33.0916 23.0395 31.8874 23.5996 30.6198 23.6427Z" fill="#DAC8DE"/>
<path fill-rule="evenodd" clip-rule="evenodd" d="M28.0427 22.8888C28.0639 22.7596 28.1272 22.6518 28.1906 22.5441C28.9512 21.0793 30.43 20.1099 32.0568 20.0452H32.1624C32.6906 20.0237 33.2188 20.1099 33.7258 20.2822L33.8103 20.3038C34.1483 20.4115 34.4652 20.5838 34.7399 20.7777L34.761 20.7992C34.9089 20.9069 35.0568 21.0362 35.1835 21.187C31.7399 20.433 30.4934 22.5872 28.0427 22.8888Z" fill="#C4A7CA"/>
<path fill-rule="evenodd" clip-rule="evenodd" d="M65.162 20.8854C65.162 20.7992 65.1409 20.713 65.1409 20.6269C65.2254 20.6053 65.3099 20.6053 65.3944 20.5838C66.5141 20.4545 67.5916 20.95 68.2676 21.8548L68.3099 21.9194C68.5211 22.221 68.669 22.5441 68.7747 22.9103L68.7958 22.9534C68.8592 23.1904 68.9014 23.4273 68.9014 23.6643V23.6858C68.9014 23.8151 68.8803 23.9444 68.8592 24.0736C67.0423 21.4885 65.5845 23.3843 65.162 20.8854Z" fill="url(#paint0_linear_29_718)"/>
<path fill-rule="evenodd" clip-rule="evenodd" d="M65.1616 20.6485C65.2461 20.6269 65.3306 20.6054 65.4151 20.6054C66.5349 20.4761 67.6123 20.9716 68.2884 21.8764L68.3306 21.941C68.5419 22.2426 68.6898 22.5657 68.7954 22.9319L68.8165 22.975C68.8799 23.212 68.9222 23.449 68.9222 23.6859V23.7075C68.9222 23.8367 68.901 23.966 68.8799 24.0952C68.1405 21.6825 66.4926 21.0362 65.1616 20.6485Z" fill="url(#paint1_linear_29_718)"/>
<path fill-rule="evenodd" clip-rule="evenodd" d="M48.2184 25.9909C48.6621 26.2925 49.0213 26.7233 49.2536 27.1972C49.2959 27.2619 49.317 27.348 49.3593 27.4342V27.4557C49.2959 27.4988 49.2114 27.5419 49.148 27.585C48.1551 28.102 46.972 28.0158 46.0424 27.4126L45.979 27.3696C45.6832 27.1541 45.4297 26.9172 45.2185 26.6156L45.1762 26.5725C45.0283 26.3786 44.9227 26.1632 44.8382 25.9478V25.9262C44.7959 25.797 44.7537 25.6677 44.7537 25.5385C44.7537 25.5385 45.0706 25.6893 45.7889 25.5385C46.6128 25.3231 47.5001 25.5169 48.2184 25.9909Z" fill="url(#paint2_linear_29_718)"/>
<path fill-rule="evenodd" clip-rule="evenodd" d="M49.3378 27.4342C49.2744 27.4772 49.1899 27.5203 49.1265 27.5634C48.1336 28.0804 46.9505 27.9943 46.0209 27.3911L45.9575 27.348C45.6618 27.1326 45.4082 26.8956 45.197 26.594L45.1547 26.5509C45.0068 26.357 44.9012 26.1416 44.8167 25.9047V25.8831C44.7744 25.7539 44.7322 25.6246 44.7322 25.4954C46.5068 26.831 48.0068 25.3877 49.3378 27.4342Z" fill="url(#paint3_linear_29_718)"/>
<path fill-rule="evenodd" clip-rule="evenodd" d="M92.3308 27.865C92.2675 27.9296 92.183 27.9512 92.1196 27.9943C91.1689 28.4466 90.028 28.3605 89.1618 27.7357L89.0985 27.6927C88.8238 27.4772 88.5914 27.2403 88.4013 26.9387L88.3801 26.8956C88.2534 26.7017 88.1478 26.5078 88.0844 26.2924V26.2709C88.0421 26.1632 88.021 26.0339 88.021 25.9047C89.4365 27.1541 93.1548 26.314 92.3308 27.865Z" fill="url(#paint4_linear_29_718)"/>
<path fill-rule="evenodd" clip-rule="evenodd" d="M92.3307 27.8865C92.2673 27.9296 92.1828 27.9727 92.1195 27.9943C91.1688 28.4466 90.0279 28.3605 89.1617 27.7357L89.0983 27.6927C88.8237 27.4772 88.5913 27.2403 88.38 26.9387L88.3589 26.8956C88.2321 26.7017 88.1265 26.5078 88.0631 26.2924V26.2709C88.0209 26.1632 87.9998 26.0339 87.9998 25.9047C88.7814 27.0679 90.3448 27.7788 92.3307 27.8865Z" fill="url(#paint5_linear_29_718)"/>
<path fill-rule="evenodd" clip-rule="evenodd" d="M112.845 28.7269C113.035 28.9423 110.943 30.8164 109.169 29.8901L109.127 29.8686C108.936 29.7609 108.767 29.6316 108.598 29.5024L108.577 29.4808C108.493 29.3947 108.429 29.3085 108.366 29.2008C110.774 29.8901 111.894 27.6497 112.845 28.7269Z" fill="url(#paint6_linear_29_718)"/>
<path fill-rule="evenodd" clip-rule="evenodd" d="M112.845 28.7268C113.035 28.9422 110.943 30.8164 109.169 29.8901L109.127 29.8685C108.936 29.7608 108.767 29.6316 108.598 29.5023L108.577 29.4808C108.493 29.3946 108.429 29.3084 108.366 29.2007C110.774 29.8901 111.788 29.5454 112.845 28.7268Z" fill="url(#paint7_linear_29_718)"/>
<defs>
<linearGradient id="paint0_linear_29_718" x1="65.155" y1="22.3185" x2="68.9103" y2="22.3185" gradientUnits="userSpaceOnUse">
<stop stop-color="#DFC8D7"/>
<stop offset="1" stop-color="#F29BA0"/>
</linearGradient>
<linearGradient id="paint1_linear_29_718" x1="65.1546" y1="22.3402" x2="68.9099" y2="22.3402" gradientUnits="userSpaceOnUse">
<stop stop-color="#CDA5BD"/>
<stop offset="1" stop-color="#EA5F67"/>
</linearGradient>
<linearGradient id="paint2_linear_29_718" x1="44.7287" y1="26.6877" x2="49.3536" y2="26.6877" gradientUnits="userSpaceOnUse">
<stop stop-color="#FF9999"/>
<stop offset="1" stop-color="#FCDF9B"/>
</linearGradient>
<linearGradient id="paint3_linear_29_718" x1="44.7219" y1="26.6991" x2="49.3468" y2="26.6991" gradientUnits="userSpaceOnUse">
<stop stop-color="#F8BE5F"/>
<stop offset="1" stop-color="#F5B95D"/>
</linearGradient>
<linearGradient id="paint4_linear_29_718" x1="87.9933" y1="27.092" x2="92.4549" y2="27.092" gradientUnits="userSpaceOnUse">
<stop stop-color="#F9F59F"/>
<stop offset="1" stop-color="#C7E5CA"/>
</linearGradient>
<linearGradient id="paint5_linear_29_718" x1="87.9932" y1="27.092" x2="92.3412" y2="27.092" gradientUnits="userSpaceOnUse">
<stop stop-color="#F7EF62"/>
<stop offset="1" stop-color="#A9D7A9"/>
</linearGradient>
<linearGradient id="paint6_linear_29_718" x1="108.361" y1="29.2872" x2="112.859" y2="29.2872" gradientUnits="userSpaceOnUse">
<stop stop-color="#D5AAD7"/>
<stop offset="1" stop-color="#D6AFAF"/>
</linearGradient>
<linearGradient id="paint7_linear_29_718" x1="108.361" y1="29.4362" x2="112.859" y2="29.4362" gradientUnits="userSpaceOnUse">
<stop stop-color="#BC75C8"/>
<stop offset="1" stop-color="#BD7F7F"/>
</linearGradient>
</defs>
</svg>
