<svg width="127" height="69" viewBox="0 0 127 69" fill="none" xmlns="http://www.w3.org/2000/svg">
<rect width="126.5" height="69" rx="4" fill="white"/>
<path fill-rule="evenodd" clip-rule="evenodd" d="M56.9052 2.02928L52.8483 2.03789C52.4016 2.23062 52.0816 2.43744 51.8941 2.91604C51.8433 3.04585 51.8072 3.17814 51.7984 3.31774C51.7631 3.87296 51.773 4.44098 51.7827 5.00566V5.0058C51.7874 5.27359 51.792 5.54063 51.7918 5.80518L51.7911 16.8177L51.799 19.837C51.8066 19.9936 51.8306 20.1374 51.896 20.2805C52.0911 20.7075 52.3855 20.9551 52.8229 21.1091C52.9686 21.1604 53.1462 21.1553 53.3104 21.1504C53.3597 21.149 53.4079 21.1476 53.4536 21.1478L54.7319 21.1503L66.1499 21.1475L69.533 21.1344C69.9644 20.927 70.3011 20.7102 70.4856 20.235C70.5534 20.0602 70.5779 19.877 70.5866 19.6907L70.5937 16.8168L70.5905 6.27217L70.5841 3.45928C70.5738 3.24623 70.533 3.02649 70.4401 2.83366C70.2663 2.47272 69.9622 2.19341 69.584 2.06703C69.3152 1.9773 68.8995 1.99768 68.5401 2.01529C68.4054 2.02189 68.2786 2.02811 68.1704 2.02799L56.9052 2.02928ZM55.7168 3.48011C54.9524 3.47058 54.1852 3.46102 53.428 3.5037L53.4129 3.5252C53.2912 3.698 53.2608 3.74118 53.2459 3.96876C53.1997 4.67037 53.2127 5.38964 53.2256 6.10437V6.10471C53.2317 6.4421 53.2378 6.77848 53.2377 7.1115L53.2386 17.4884C53.2387 17.67 53.2327 17.8597 53.2265 18.0523V18.0526C53.2128 18.4796 53.1987 18.9207 53.2512 19.3179C53.2728 19.4805 53.3182 19.5216 53.4121 19.6063C53.4279 19.6206 53.4452 19.6362 53.4639 19.6538C54.0087 19.7102 54.5746 19.7004 55.1328 19.6907C55.3482 19.687 55.5627 19.6832 55.7742 19.6834L65.8952 19.6837C66.1956 19.6836 66.4979 19.6878 66.8009 19.6919C67.514 19.7018 68.2311 19.7117 68.9356 19.6662L68.9508 19.6465C69.0744 19.4866 69.1326 19.4113 69.1467 19.1908C69.1901 18.5148 69.1767 17.8164 69.1635 17.1245V17.1242C69.157 16.7895 69.1506 16.4565 69.1507 16.1281L69.1511 5.77916C69.1511 5.59438 69.157 5.40134 69.1629 5.20533C69.1766 4.76015 69.1907 4.29969 69.1367 3.88615C69.1142 3.71398 69.0633 3.66527 68.9652 3.57112C68.9486 3.55524 68.9307 3.53805 68.9113 3.51875C68.4375 3.45573 67.9329 3.46714 67.4395 3.4783C67.2485 3.48263 67.0593 3.48691 66.874 3.48682L56.714 3.48822C56.383 3.48841 56.0503 3.48426 55.717 3.48011H55.7168Z" fill="black"/>
<path d="M27.9947 30.6792L27.9502 30.6818C27.9394 30.6943 27.9291 30.7063 27.919 30.7178C27.7931 30.8632 27.7282 30.9383 27.7151 31.1579C27.6847 31.6646 27.6935 32.1846 27.7024 32.7008C27.7066 32.9512 27.7109 33.2008 27.7107 33.4476L27.7108 42.1619C27.7111 42.3625 27.7068 42.5669 27.7024 42.7723V42.7725C27.6933 43.1949 27.6843 43.6221 27.7151 44.0326C27.7272 44.1949 27.7691 44.2867 27.9024 44.3849C28.1886 44.5956 29.3166 44.5355 29.6722 44.4547C29.7634 44.434 29.9063 44.3092 29.9415 44.2158C29.9763 44.124 29.9732 43.9973 29.9703 43.8849V43.8847C29.9694 43.8508 29.9687 43.8181 29.9689 43.7881L29.97 42.7815L29.9671 38.5823L35.9002 38.5725L35.9052 43.6489C35.9053 43.67 35.9051 43.691 35.9047 43.7121C35.9044 43.7313 35.9041 43.7507 35.9037 43.77C35.9004 43.9365 35.8971 44.102 35.9592 44.2595C35.9734 44.2733 35.9902 44.2916 36.008 44.3113L36.0082 44.3115L36.0087 44.3122L36.0093 44.3129L36.0096 44.313C36.0502 44.3581 36.0969 44.4095 36.1342 44.4295C36.3657 44.5541 36.8843 44.5307 37.2663 44.5135C37.3743 44.5087 37.4712 44.5043 37.5478 44.504L37.568 44.5L37.5869 44.4963C37.7716 44.4607 37.9103 44.4339 38.0601 44.3026C38.1195 44.2001 38.1502 44.136 38.156 44.0147L38.1615 40.9926L38.1608 32.0786C38.1607 31.9896 38.1655 31.8878 38.1705 31.781V31.7802C38.1826 31.5202 38.1961 31.2306 38.1447 31.0263C38.1134 30.902 38.0505 30.7839 37.9352 30.7225C37.7218 30.6086 36.4497 30.6177 36.1907 30.6887C36.037 30.7309 35.9865 30.8255 35.9158 30.9584L35.9153 30.9595L35.9047 34.917C35.9047 35.0067 35.9107 35.1218 35.9172 35.2478C35.9352 35.5989 35.9577 36.0343 35.8682 36.2411L29.9556 36.2291L29.9707 32.295C29.9706 32.1844 29.9772 32.0553 29.9841 31.919C30.0029 31.5538 30.0243 31.1352 29.9269 30.8744C29.6017 30.5752 28.8018 30.6278 28.2551 30.6637L28.2549 30.6638C28.159 30.6701 28.0711 30.6759 27.9947 30.6792Z" fill="black"/>
<path d="M44.6053 30.6536C43.4678 30.6352 42.323 30.6166 41.2023 30.6831C41.1254 30.7889 41.0883 30.8479 41.0806 30.983C41.045 31.6175 41.0552 32.2664 41.0654 32.911C41.0703 33.2189 41.0751 33.526 41.075 33.8302L41.0754 42.746C41.0755 42.8875 41.0704 43.0372 41.0652 43.1897V43.19C41.0534 43.5326 41.041 43.8896 41.0874 44.2015C41.107 44.3343 41.1351 44.3591 41.2187 44.4328L41.2193 44.4333C41.2278 44.4407 41.2367 44.4486 41.2463 44.4572C41.5338 44.5156 41.8312 44.5119 42.1256 44.5083H42.1267C42.2046 44.5073 42.2824 44.5063 42.3598 44.5065L44.2609 44.5087L48.8261 44.4998L48.8382 44.4991C48.967 44.4929 49.1124 44.4858 49.2221 44.4133C49.2803 44.3747 49.2797 44.3121 49.2791 44.2473C49.2788 44.2289 49.2786 44.2103 49.2798 44.1922L49.2699 42.2866L43.4426 42.2483L43.4401 38.6174L46.5016 38.6077C46.6344 38.6077 46.7807 38.6136 46.9333 38.6198C47.3806 38.638 47.8809 38.6584 48.2481 38.5386C48.3919 38.3099 48.3994 36.8772 48.327 36.5744C48.3099 36.5034 48.2768 36.423 48.2074 36.3903C48.0317 36.3074 47.6341 36.3281 47.3283 36.3441C47.2229 36.3496 47.1284 36.3545 47.0578 36.3545L43.4427 36.351V32.9222L49.2721 32.88L49.2878 31.357C49.2873 31.3124 49.2886 31.2671 49.29 31.222V31.2215C49.2955 31.0464 49.3009 30.872 49.1948 30.7335C48.9427 30.651 48.6471 30.6591 48.3687 30.6669C48.2865 30.6691 48.2058 30.6713 48.1281 30.6712L46.1664 30.6708C45.6497 30.6706 45.1285 30.6621 44.6057 30.6536H44.6053Z" fill="black"/>
<path d="M23.9435 31.5393C22.7438 30.8215 21.1982 30.5028 19.8101 30.6965C17.9294 30.9433 16.2694 31.7966 15.098 33.3347C14.0449 34.7173 13.4605 36.6211 13.697 38.3657C13.9508 40.2379 14.8527 41.9571 16.3677 43.0994C17.8915 44.2483 19.7814 44.6825 21.6547 44.3948C22.8545 44.2104 24.3275 43.607 25.1359 42.651C25.1892 42.5879 25.2176 42.5221 25.2499 42.4475L25.2511 42.4446C25.2474 42.4245 25.2453 42.4039 25.2432 42.3833C25.239 42.3421 25.2349 42.3009 25.217 42.2644C25.1792 42.1875 25.0671 42.0805 24.9759 41.9935L24.9758 41.9934C24.9409 41.9599 24.9089 41.9295 24.8855 41.9049C24.813 41.8285 24.7376 41.7454 24.6601 41.6599L24.6594 41.6591L24.659 41.6588C24.4305 41.4067 24.1833 41.1341 23.9361 40.9541C23.8937 40.9231 23.8657 40.9156 23.8248 40.9047C23.8185 40.9029 23.8118 40.9011 23.8047 40.8992L23.579 41.0075C22.4159 41.8513 21.2434 42.2674 19.8057 42.0262C18.6936 41.8396 17.668 41.1424 17.0288 40.215C16.3466 39.2253 16.0598 37.8798 16.2776 36.6907C16.4891 35.5368 17.1338 34.3936 18.0988 33.7173C19.0476 33.0523 20.2418 32.7896 21.3801 32.9939C22.3146 33.1617 23.0821 33.6272 23.8011 34.23C23.8659 34.1696 23.9331 34.1077 24.0017 34.0446C24.4461 33.6356 24.9514 33.1705 25.2621 32.6894C25.1536 32.2622 24.3621 31.7894 23.9758 31.5586L23.9435 31.5393Z" fill="black"/>
<path d="M70.9826 53.1919C70.9379 53.1939 70.8941 53.1958 70.8529 53.1959L69.3652 56.4141L65.1945 65.5127C65.1464 65.6143 65.0873 65.7251 65.0256 65.8406L65.0248 65.842L65.0246 65.8423L65.0243 65.8429C64.8569 66.1562 64.6707 66.5047 64.6322 66.8042C64.7426 66.9412 64.8036 66.9566 64.9792 66.9678C65.3031 66.9884 65.6366 66.9815 65.9668 66.9747C66.1118 66.9718 66.2561 66.9688 66.3986 66.9683C66.4554 66.9679 66.5182 66.9702 66.5838 66.9726C66.7728 66.9793 66.9839 66.987 67.1357 66.9374L69.6179 61.4009L70.4798 59.4727C70.5235 59.3761 70.5649 59.2763 70.6067 59.1759L70.6069 59.1752C70.6899 58.9755 70.7737 58.7735 70.8774 58.5914C70.9562 58.453 71.0134 58.3711 71.1583 58.3064L71.2514 58.3426L75.1317 66.9645L76.6904 66.9696C76.7465 66.9694 76.8047 66.9712 76.8639 66.973C77.0968 66.9799 77.3456 66.9872 77.5467 66.8893C77.5938 66.7494 77.5581 66.6643 77.5068 66.542L77.5066 66.5417L77.5063 66.5408L77.4987 66.5229L77.4942 66.5118C77.4898 66.5012 77.4853 66.4902 77.4807 66.4789L75.4929 62.1094L71.4516 53.2608C71.3266 53.1766 71.1472 53.1845 70.9826 53.1919Z" fill="black"/>
<path d="M79.4144 53.2042L87.5473 53.2185C87.6177 53.9067 87.6047 54.7022 87.524 55.3891L81.7749 55.4318C81.6868 55.5333 81.7098 56.047 81.7239 56.3621C81.7277 56.4484 81.7309 56.5198 81.731 56.5638L81.7342 58.8529L85.0276 58.8587C85.1171 58.8587 85.2311 58.8529 85.3576 58.8465H85.3579C85.7695 58.8259 86.3104 58.7987 86.5495 58.9426L86.5558 58.9541C86.5863 59.0099 86.6098 59.0531 86.6198 59.1192C86.666 59.4253 86.6513 59.7877 86.6375 60.1255C86.633 60.238 86.6286 60.3478 86.6265 60.452C86.626 60.4772 86.6264 60.5111 86.627 60.5493C86.6286 60.6756 86.6308 60.8497 86.6023 60.9211C86.5862 60.961 86.5593 60.995 86.5325 61.0291C86.5242 61.0396 86.5159 61.0502 86.5079 61.0608C86.5068 61.0623 86.5057 61.0637 86.5047 61.0651L86.5036 61.0665C86.5022 61.0685 86.5007 61.0705 86.4994 61.0725C86.4973 61.0753 86.4953 61.0782 86.4934 61.0811C86.1123 61.1363 85.7074 61.1265 85.3108 61.1171H85.3094C85.1607 61.1134 85.0131 61.1098 84.8683 61.1098L81.7117 61.1298L81.7289 62.1209L81.7095 64.7638L87.5384 64.8136C87.6133 65.4924 87.5787 66.2362 87.5469 66.9198V66.92L87.546 66.9392C86.8585 67.021 86.1248 67.0026 85.4048 66.9845L85.4042 66.9844C85.0982 66.9768 84.7948 66.9691 84.4985 66.9693L79.3851 66.9497C79.3348 66.2933 79.3456 65.6168 79.3561 64.9467V64.9457C79.3606 64.664 79.3651 64.3835 79.365 64.1061L79.3628 55.1132C79.3628 54.9516 79.3583 54.7854 79.3538 54.6173C79.3409 54.142 79.3276 53.6511 79.4144 53.2042Z" fill="black"/>
<path d="M14.6843 53.1854H14.6853C15.2318 53.1618 15.8353 53.1359 16.3317 53.2115C16.4371 53.2275 16.5499 53.3158 16.6013 53.418C16.6864 53.587 16.6681 53.9568 16.654 54.2423C16.6494 54.3352 16.6452 54.4192 16.6452 54.4844L16.6447 57.6643C16.6446 57.7233 16.6412 57.8007 16.6374 57.888C16.6233 58.2114 16.6032 58.671 16.7243 58.8355L16.8955 58.8392L21.896 53.1963L24.198 53.2069L24.2098 53.2169C24.3366 53.3243 24.3478 53.3338 24.3891 53.5042C24.337 53.7617 22.8067 55.4919 21.4054 57.0761L21.4053 57.0762C20.3755 58.2405 19.4154 59.3259 19.1629 59.6902C19.367 60.0809 19.6999 60.4622 20.0137 60.8216L20.0141 60.822L20.0144 60.8224L20.0148 60.8228L20.0148 60.8229L20.0154 60.8235C20.1302 60.9551 20.2424 61.0836 20.3449 61.2087L22.9326 64.3473L24.3057 66.0297C24.3296 66.0591 24.3658 66.0993 24.4068 66.1452C24.5222 66.274 24.6766 66.4463 24.709 66.5419C24.7237 66.5854 24.7247 66.6318 24.7258 66.6783C24.7263 66.7014 24.7269 66.7247 24.7291 66.7475C24.7239 66.755 24.7188 66.7623 24.7138 66.7694C24.6292 66.8901 24.5861 66.9514 24.4226 66.965C23.9957 67.0008 23.5475 66.9891 23.106 66.9775H23.1053C22.9045 66.9723 22.7049 66.9671 22.5094 66.9663C22.4881 66.9663 22.4473 66.9682 22.3975 66.9704L22.3951 66.9706H22.3941C22.2473 66.9774 22.0249 66.9876 21.9825 66.9641C21.8656 66.8996 21.666 66.6169 21.5132 66.4005C21.4518 66.3136 21.3979 66.2373 21.3601 66.1902L18.3259 62.4073C18.2002 62.2499 18.0713 62.0748 17.9387 61.8946C17.6148 61.4548 17.2691 60.9851 16.8955 60.6706L16.7155 60.6973C16.5982 60.9086 16.6203 61.3471 16.6375 61.6902C16.6429 61.7974 16.6478 61.8953 16.6479 61.974C16.6479 62.0874 16.6514 62.2994 16.6558 62.574C16.6771 63.8857 16.7216 66.6276 16.5315 66.8892C16.3242 66.9794 16.0993 66.9758 15.8756 66.9721C15.8246 66.9714 15.7736 66.9705 15.723 66.9707C15.61 66.9714 15.4949 66.974 15.3789 66.9766C15.0874 66.9832 14.7904 66.9898 14.5082 66.966C14.3464 66.9524 14.2912 66.9234 14.1875 66.8012C14.1096 66.3136 14.1216 65.7826 14.1332 65.268C14.1375 65.0807 14.1416 64.8956 14.1414 64.7155L14.1401 55.9357C14.1403 55.7008 14.1349 55.4608 14.1295 55.2191C14.1176 54.6826 14.1054 54.1374 14.1527 53.6192C14.1668 53.4644 14.2054 53.3371 14.2788 53.2012C14.4084 53.1973 14.5445 53.1914 14.6843 53.1854Z" fill="black"/>
<path d="M71.7726 30.6826C71.8114 30.6802 71.8581 30.6771 71.9111 30.6735C72.4031 30.6404 73.435 30.571 73.686 30.8009C73.767 30.875 73.8069 30.993 73.8181 31.1013C73.8537 31.4437 73.8429 31.8144 73.8322 32.1766V32.1799C73.8273 32.3481 73.8224 32.5145 73.8223 32.6753L73.8143 36.233L79.5223 36.2447C79.5247 36.2446 79.5283 36.2446 79.5327 36.2446C79.5732 36.2442 79.689 36.2435 79.7072 36.2155C79.7299 36.1807 79.7186 35.8719 79.7118 35.6882L79.7117 35.6843C79.7107 35.6567 79.7098 35.6321 79.7091 35.6116C79.7085 35.5904 79.7081 35.5739 79.7081 35.5638L79.7124 32.5412C79.7123 32.3977 79.7078 32.2489 79.7031 32.0984C79.692 31.7415 79.6805 31.3741 79.7287 31.0412C79.7482 30.9064 79.8008 30.8264 79.8931 30.7315C80.2175 30.608 80.7268 30.6358 81.1498 30.6589H81.15C81.2705 30.6655 81.384 30.6716 81.4842 30.6739C81.7029 30.6787 81.7664 30.7162 81.9174 30.8744C81.9895 31.0907 81.9813 31.3497 81.9736 31.5936C81.9712 31.6688 81.9688 31.7426 81.969 31.8134L81.97 42.9381C81.9701 43.0478 81.9734 43.1618 81.9768 43.2772V43.2774C81.9845 43.5419 81.9925 43.814 81.9623 44.061C81.9512 44.1531 81.9243 44.2189 81.8901 44.3028L81.8873 44.3099C81.7384 44.4387 81.6279 44.4572 81.4628 44.4849C81.4305 44.4904 81.3961 44.4961 81.3589 44.5032C81.282 44.5042 81.1948 44.508 81.1016 44.5122C80.6973 44.5302 80.1787 44.5533 79.8846 44.3729C79.8801 44.3674 79.8756 44.362 79.8712 44.3565C79.813 44.2861 79.756 44.217 79.7359 44.1244C79.6653 43.7992 79.6832 43.3779 79.6997 42.9899V42.9895C79.7066 42.8262 79.7133 42.6687 79.713 42.5267L79.7103 38.5661L73.8237 38.5743L73.824 42.475C73.8239 42.6007 73.8303 42.7459 73.8371 42.9002C73.8576 43.3651 73.8816 43.9122 73.7422 44.2588C73.7358 44.2651 73.7296 44.2712 73.7236 44.2771C73.7164 44.2842 73.7095 44.2911 73.7028 44.2978C73.6085 44.3918 73.5505 44.4498 73.3959 44.4812C73.0327 44.5549 71.9926 44.5753 71.6978 44.3729C71.5744 44.2065 71.5328 44.0997 71.5247 43.8908L71.5213 41.004L71.5218 32.3664C71.5217 32.2443 71.5174 32.1149 71.5131 31.9829C71.5026 31.6687 71.4918 31.3389 71.5354 31.0548C71.5576 30.9113 71.6611 30.8011 71.7569 30.6992L71.7726 30.6826Z" fill="black"/>
<path fill-rule="evenodd" clip-rule="evenodd" d="M106.716 53.2125L106.196 53.1931L101.42 63.5717L100.312 66.0179C100.288 66.0734 100.258 66.1339 100.227 66.1972C100.116 66.4217 99.9871 66.6824 100.014 66.8893C100.2 66.9762 100.388 66.9732 100.585 66.97C100.627 66.9693 100.669 66.9687 100.711 66.9689C100.841 66.9694 100.98 66.9741 101.122 66.9789C101.517 66.9923 101.941 67.0068 102.29 66.9355L103.448 64.4697L106.716 64.4603L109.442 64.474L110.093 65.9946C110.108 66.0276 110.122 66.0611 110.136 66.0947L110.143 66.1114L110.156 66.1426L110.176 66.1908C110.278 66.4366 110.382 66.6876 110.535 66.8997C110.876 67.0196 111.363 66.9997 111.788 66.9823C111.915 66.9772 112.037 66.9722 112.147 66.9714C112.187 66.9711 112.227 66.9715 112.267 66.9719H112.267C112.459 66.9742 112.641 66.9763 112.821 66.8893C112.881 66.752 112.853 66.683 112.804 66.5605C112.797 66.5433 112.79 66.5249 112.782 66.5052C112.562 65.9354 112.294 65.3701 112.028 64.809L112.028 64.8087L112.028 64.807L112.026 64.8033L112.023 64.798C111.9 64.5382 111.777 64.2793 111.66 64.0214L109.303 58.8446L107.58 55.0254C107.513 54.8766 107.445 54.7044 107.374 54.5238C107.189 54.0544 106.982 53.5285 106.716 53.2125ZM106.439 57.8663L108.524 62.4909L106.491 62.4961L104.348 62.4911L106.439 57.8663Z" fill="black"/>
<path fill-rule="evenodd" clip-rule="evenodd" d="M90.4333 30.6697L90.9029 30.6777C91.008 30.759 91.0517 30.8211 91.1099 30.9411L95.1377 39.8453L96.5193 42.8758C96.5681 42.9827 96.6292 43.1012 96.693 43.2248C96.8506 43.5304 97.025 43.8684 97.0726 44.1476C97.0963 44.2864 97.0796 44.3188 97.009 44.4296C96.4546 44.5999 95.4319 44.5653 94.8631 44.4371C94.5818 44.2192 94.1708 43.1947 93.886 42.4849L93.8859 42.4847C93.7987 42.2675 93.7234 42.0798 93.6673 41.9537L90.8749 41.9552L87.6814 41.9536L86.6238 44.2595C86.506 44.4296 86.354 44.4778 86.1564 44.499C85.7549 44.542 84.5677 44.6144 84.2539 44.3636C84.2534 44.3596 84.2526 44.3556 84.2519 44.3517C84.2517 44.3505 84.2515 44.3493 84.2511 44.3482L84.2503 44.3438C84.2499 44.3421 84.2494 44.3404 84.2491 44.3386C84.2476 44.3322 84.2459 44.3257 84.2443 44.3193V44.3191C84.2369 44.2897 84.2295 44.2603 84.2342 44.2311C84.2631 44.0512 84.3803 43.819 84.4851 43.6111C84.5295 43.523 84.5717 43.4393 84.604 43.3658L85.943 40.4193L88.9127 33.9383L90.4333 30.6697ZM90.6276 35.4077C90.8847 35.5598 92.0596 38.3017 92.5705 39.4939L92.5716 39.4967C92.658 39.6984 92.7253 39.8554 92.7658 39.9478L90.7064 39.9633L88.5772 39.9324L90.6276 35.4077Z" fill="black"/>
<path fill-rule="evenodd" clip-rule="evenodd" d="M43.8166 53.1946L40.6948 53.1991L40.6925 53.2066C40.6626 53.2988 40.6371 53.3776 40.6282 53.4759C40.5915 53.8788 40.6019 54.3044 40.6123 54.7228V54.723C40.6169 54.9121 40.6214 55.0999 40.6217 55.2833L40.6231 66.0369C40.6233 66.0979 40.6221 66.1594 40.6209 66.2211V66.2213C40.6169 66.4424 40.6127 66.666 40.6639 66.8794C40.8136 66.9786 41.011 66.9742 41.1945 66.97C41.2354 66.9691 41.2756 66.9682 41.3144 66.9685C41.4361 66.9692 41.5603 66.9717 41.6857 66.9742H41.6867C42.1213 66.9828 42.5708 66.9917 42.9871 66.9331L42.9834 61.9368L44.5184 61.9222C44.5776 61.9221 44.6368 61.9222 44.6959 61.9223C45.1432 61.923 45.5883 61.9238 46.0292 61.8352L46.1368 61.8142C47.2468 61.5848 48.2457 60.8109 48.8497 59.8574C49.481 58.8608 49.6447 57.6344 49.3877 56.4886C49.1448 55.4059 48.4177 54.4344 47.4858 53.8573C47.0629 53.5956 46.589 53.3759 46.0991 53.2829C45.5164 53.1724 44.9013 53.1813 44.2993 53.1899H44.2986C44.1368 53.1923 43.9758 53.1946 43.8166 53.1946ZM43.5957 55.4593C43.3846 55.4676 43.1809 55.4756 42.9909 55.4764L42.988 59.6653C43.1828 59.6658 43.3975 59.6741 43.6217 59.683L43.622 59.6831C44.3399 59.7112 45.1559 59.7434 45.7334 59.5264C46.0254 59.4166 46.2588 59.2283 46.4985 59.0343C46.921 58.5281 47.1822 58.0307 47.1327 57.3413C47.0932 56.7919 46.7934 56.3075 46.3776 55.9634C45.6704 55.3782 44.555 55.4219 43.5957 55.4593Z" fill="black"/>
<path fill-rule="evenodd" clip-rule="evenodd" d="M102.603 30.6915L108.673 30.6968C108.718 31.0628 108.712 31.4449 108.706 31.821C108.704 31.9541 108.701 32.0865 108.702 32.2172L108.702 43.9475C108.701 43.9622 108.701 43.9772 108.701 43.9923C108.701 44.1246 108.701 44.2698 108.631 44.3821C108.578 44.4676 108.41 44.4862 108.316 44.4961C107.881 44.5425 106.736 44.623 106.391 44.3554C106.276 44.0378 106.302 43.5251 106.324 43.0893C106.332 42.9326 106.339 42.7857 106.339 42.6616L106.335 39.0057L104.393 38.9937L103.71 40.4074L101.655 44.4587C101.571 44.4773 101.494 44.4938 101.407 44.4995C101.063 44.5219 99.466 44.5767 99.2446 44.4547C99.2113 44.4364 99.1835 44.41 99.1558 44.3835L99.1556 44.3834C99.1418 44.3701 99.1278 44.3567 99.1132 44.3446C99.0945 44.2207 99.0928 44.1563 99.1383 44.0363C99.2673 43.6968 99.4722 43.3526 99.6716 43.0178C99.7722 42.849 99.8713 42.6824 99.9587 42.52L101.877 38.8952L100.811 38.2837C99.9518 37.7018 99.2176 36.736 99.0271 35.6953C98.8175 34.551 99.0339 33.3884 99.7077 32.436C100.413 31.4386 101.424 30.8892 102.603 30.6915ZM103.193 32.9007L106.32 32.8871C106.358 33.2486 106.352 33.6261 106.345 33.9979V33.9998C106.342 34.1468 106.34 34.2929 106.34 34.437L106.323 37.0337C106.202 37.0803 106.049 37.0748 105.908 37.0696C105.863 37.068 105.819 37.0664 105.778 37.0666L104.623 37.0691C104.537 37.0699 104.45 37.0716 104.363 37.0734C103.669 37.0871 102.946 37.1014 102.334 36.735C101.828 36.432 101.476 35.8833 101.357 35.3079C101.248 34.7818 101.367 34.2293 101.677 33.7913C102.058 33.2525 102.571 33.0206 103.193 32.9007Z" fill="black"/>
<path fill-rule="evenodd" clip-rule="evenodd" d="M95.1653 53.2184L90.2132 53.2011C90.1371 53.555 90.1481 53.9541 90.1586 54.3357C90.1623 54.4685 90.1659 54.5991 90.1658 54.7251L90.1672 63.7479L90.1716 66.94C90.9008 67.0005 91.6494 66.99 92.3905 66.9797C92.6606 66.9759 92.9296 66.972 93.1964 66.9718C93.4161 66.9715 93.6443 66.9769 93.8763 66.9823C94.6135 66.9997 95.391 67.018 96.0704 66.8608C96.6739 66.7211 97.2647 66.4281 97.7384 66.0265C98.185 65.6479 98.4889 65.213 98.7507 64.6916C99.1131 63.7531 99.1729 62.8255 98.7576 61.8848C98.5143 61.3338 98.0506 60.8409 97.5593 60.5067C97.4971 60.4644 97.3825 60.4046 97.2552 60.3381C97.0098 60.2098 96.7172 60.0568 96.6622 59.958C97.6005 59.2847 98.4654 58.4521 98.6388 57.2354C98.7722 56.2994 98.481 55.3634 97.8953 54.6348C97.2512 53.8336 96.172 53.317 95.1653 53.2184ZM94.5525 55.4076L93.1288 55.375L92.5074 55.4099L92.5079 59.0586C92.6675 59.061 92.8384 59.0683 93.0157 59.0759C93.7643 59.1082 94.6276 59.1453 95.2445 58.8311C95.6802 58.5046 96.0322 58.0986 96.1049 57.5311C96.1725 57.0035 96.103 56.4779 95.7688 56.0501C95.4789 55.6786 95.0155 55.4475 94.5525 55.4076ZM92.5103 61.1186C92.6889 61.1165 92.8774 61.1087 93.0716 61.1006C94.0426 61.0602 95.1542 61.0139 95.8742 61.6607C96.1806 61.9361 96.4314 62.3041 96.4616 62.7254C96.5074 63.3638 96.3463 63.7877 95.9397 64.2671C95.2357 64.9216 94.11 64.8747 93.1257 64.8336C92.9116 64.8247 92.7044 64.8161 92.5094 64.815L92.5103 61.1186Z" fill="black"/>
<path d="M51.534 30.6789L53.4342 30.6762C53.4602 30.6762 53.5027 30.6738 53.5521 30.6709C53.6796 30.6636 53.853 30.6537 53.9059 30.6772C53.959 30.7006 54.055 30.8143 54.1157 30.8862C54.1297 30.9026 54.1417 30.9169 54.151 30.9275L54.7953 31.6665C54.8847 31.7688 55.0625 31.9768 55.2965 32.2508C56.3967 33.5386 58.7414 36.2829 58.9969 36.3475C59.0092 36.3374 59.0224 36.3277 59.0356 36.318C59.0802 36.2853 59.1254 36.2522 59.144 36.1994C59.205 36.0261 59.1907 35.7505 59.1785 35.5141C59.1739 35.4252 59.1695 35.3419 59.1696 35.2717L59.1699 32.2365C59.1696 32.1434 59.1645 32.0345 59.159 31.9177V31.9175C59.1405 31.5259 59.1178 31.0449 59.2629 30.7753C59.4288 30.6555 59.6268 30.6607 59.825 30.6661L59.8549 30.6669C59.8893 30.6677 59.9236 30.6684 59.9577 30.6683L61.4403 30.6901C61.4555 30.7032 61.4696 30.7151 61.4829 30.7264C61.58 30.8088 61.6312 30.8523 61.662 31.003C61.7094 31.2347 61.6985 31.5231 61.6884 31.7916C61.6844 31.9004 61.6804 32.0058 61.6804 32.1029L61.6781 34.8422C61.678 34.9612 61.675 35.0837 61.6719 35.2076V35.2082C61.6631 35.5654 61.6539 35.9349 61.713 36.2715L61.8336 36.3406C61.9528 36.3117 62.0368 36.2176 62.1181 36.1266C62.1346 36.108 62.1511 36.0896 62.1677 36.0719L63.0782 35.0463C63.4788 34.5892 63.875 34.1202 64.2723 33.6498L64.2724 33.6497C65.1333 32.6304 66.0001 31.6042 66.9305 30.6774L68.6208 30.6751C68.6725 30.6756 68.7255 30.6737 68.7788 30.6719H68.779C68.9814 30.665 69.1888 30.6579 69.3488 30.7747C69.3579 30.8003 69.3669 30.8232 69.3752 30.8445L69.3754 30.845L69.3755 30.8452C69.4132 30.9409 69.4372 31.0016 69.3792 31.1189C69.2491 31.3818 68.9822 31.6573 68.7369 31.9105L68.7368 31.9106L68.736 31.9114L68.7356 31.9119C68.635 32.0157 68.5381 32.1157 68.4558 32.2096L64.6289 36.6082C64.5997 36.6425 64.5686 36.6777 64.5367 36.7136L64.5365 36.7137C64.4093 36.8573 64.2706 37.0136 64.2027 37.181C64.5214 37.6877 64.9232 38.1604 65.3183 38.6253L65.3184 38.6254L65.3189 38.626C65.4551 38.7862 65.5904 38.9454 65.7213 39.1049L68.5229 42.5097C68.6333 42.6441 68.754 42.7817 68.8772 42.9221C69.2017 43.292 69.5432 43.6813 69.7577 44.0829C69.7299 44.264 69.7176 44.2993 69.6074 44.4443C69.2193 44.5541 68.7286 44.5349 68.277 44.5174H68.2765C68.1171 44.5112 67.9625 44.5051 67.8191 44.5051C67.789 44.505 67.7437 44.5062 67.6898 44.5076C67.4864 44.513 67.1616 44.5215 67.0796 44.4777C67.0046 44.4376 66.9147 44.3214 66.8464 44.2332C66.8289 44.2106 66.8127 44.1898 66.7986 44.1726L66.1918 43.4249L63.1229 39.5848C63.0717 39.5197 63.0023 39.4245 62.9213 39.3132L62.9212 39.3131C62.5998 38.8717 62.0953 38.179 61.8108 38.1252C61.8057 38.1304 61.8004 38.1354 61.7949 38.1403C61.7907 38.1441 61.7864 38.1478 61.7821 38.1516C61.7807 38.1527 61.7792 38.1539 61.7778 38.1551C61.7744 38.158 61.771 38.1608 61.7676 38.1636C61.7377 38.1884 61.7078 38.2133 61.6907 38.2475C61.6265 38.3758 61.6573 40.7999 61.6738 42.1066V42.1072C61.6786 42.4802 61.6821 42.7621 61.682 42.8734C61.682 42.967 61.6865 43.0712 61.6912 43.1805V43.1809C61.71 43.6194 61.7325 44.1433 61.4799 44.4296C60.9301 44.602 59.9579 44.5585 59.39 44.454C59.3753 44.4412 59.3617 44.4297 59.3489 44.419C59.255 44.3397 59.2125 44.3039 59.1859 44.1556C59.1302 43.8437 59.1444 43.4717 59.1578 43.1198C59.1637 42.9686 59.1693 42.821 59.1691 42.6837C59.1687 42.2243 59.1778 41.7585 59.1871 41.2905C59.2072 40.2665 59.2277 39.2322 59.148 38.2326L58.9969 38.1277C58.9135 38.1446 58.8652 38.1655 58.8049 38.2278C58.4424 38.6024 58.1128 39.0409 57.7876 39.4733L57.7873 39.4735L57.787 39.4739L57.7866 39.4745L57.7863 39.4749L57.7853 39.4762C57.628 39.6853 57.4717 39.8931 57.3132 40.0916L53.7834 44.4615C53.4648 44.5171 53.1274 44.5129 52.7975 44.5089C52.7063 44.5077 52.6157 44.5066 52.5261 44.5069C52.4313 44.507 52.3339 44.5092 52.2356 44.5114C51.9823 44.5172 51.7222 44.5231 51.4805 44.4944C51.2677 44.469 51.225 44.4486 51.0958 44.2813C51.0948 44.2616 51.0919 44.2363 51.0888 44.2088C51.0817 44.1461 51.0734 44.0728 51.0836 44.0326C51.1002 43.9678 51.2001 43.8504 51.2695 43.7688L51.2698 43.7685C51.2775 43.7595 51.2848 43.7509 51.2915 43.7428C51.294 43.74 51.2962 43.7373 51.2985 43.7346C51.3008 43.7318 51.303 43.7293 51.3052 43.7267C51.3087 43.7224 51.312 43.7184 51.315 43.7146L52.0391 42.8306L55.0561 39.1714C55.1935 39.0037 55.3341 38.8371 55.4751 38.67C55.8869 38.1818 56.3019 37.6898 56.6492 37.1605L51.4241 31.1013C51.4101 30.9012 51.4304 30.8649 51.5135 30.7158C51.5199 30.7042 51.5267 30.6919 51.534 30.6789Z" fill="black"/>
<path fill-rule="evenodd" clip-rule="evenodd" d="M31.2047 53.2102L31.1725 53.2144C29.2739 53.4174 27.6287 54.2392 26.4189 55.7623C25.2519 57.2317 24.7508 59.1112 24.974 60.9764C25.1926 62.8023 26.1604 64.483 27.608 65.5956C29.0659 66.7162 30.5493 67.0084 32.343 66.9511C34.142 66.8281 35.7629 65.9895 36.9445 64.6119C38.1884 63.1615 38.7146 61.3138 38.5628 59.4149C38.4195 57.6209 37.476 55.8881 36.1065 54.7485C34.7199 53.5945 32.9896 53.0874 31.2047 53.2102ZM34.5617 56.5945C33.7488 55.9291 32.6767 55.5414 31.6251 55.5989C30.2931 55.7048 29.1977 56.1762 28.3217 57.2264C27.6006 58.091 27.2022 59.2701 27.2982 60.4014C27.4048 61.6567 27.9584 62.7554 28.9164 63.5681C29.801 64.3186 30.8528 64.5988 31.9887 64.6002C33.2597 64.4659 34.3743 63.9752 35.2 62.958C36.014 61.9552 36.3168 60.8081 36.1901 59.5211C36.0786 58.3893 35.4283 57.3038 34.5617 56.5945Z" fill="black"/>
<path fill-rule="evenodd" clip-rule="evenodd" d="M57.3621 53.2153L57.3789 53.2136C59.2157 53.1107 60.971 53.5913 62.3769 54.8262C63.8035 56.0792 64.6533 57.8021 64.7726 59.7073C64.8864 61.5245 64.2306 63.3419 63.0452 64.7025C61.8837 66.0355 60.2538 66.8409 58.5052 66.9525C56.6451 67.0134 55.1443 66.6794 53.6604 65.4956C52.3328 64.4362 51.3542 62.7558 51.1598 61.0476C50.9441 59.1516 51.3869 57.2817 52.5846 55.7793C53.8061 54.2472 55.4419 53.4124 57.3621 53.2153ZM57.8156 55.5965C58.8769 55.6065 59.8366 55.874 60.6812 56.5468C61.5442 57.2341 62.2259 58.3003 62.3516 59.4158C62.5012 60.7446 62.221 61.9096 61.3842 62.9521C60.5599 63.979 59.4334 64.4641 58.1593 64.6017C57.0557 64.6061 56.0348 64.3264 55.1604 63.6217C54.2558 62.8927 53.6156 61.7919 53.5046 60.6209C53.384 59.3481 53.7131 58.1596 54.537 57.1805C55.3976 56.158 56.5173 55.7 57.8156 55.5965Z" fill="black"/>
<path d="M61.1802 6.11666C62.071 7.67992 62.6718 9.45838 63.0626 11.2119C63.6117 10.6551 64.1637 10.0605 64.7808 9.5811C65.4132 9.0898 66.1127 8.71187 66.8147 8.33426C65.6903 10.3785 64.6949 12.5755 64.0856 14.8352C63.9678 15.2722 63.9045 15.7832 63.6195 16.1475C63.0771 16.8408 62.0442 16.9715 61.2341 17.0495C60.7777 17.018 60.3339 16.9836 59.8957 16.8414C59.4333 16.6913 58.9258 16.4624 58.6613 16.0283C58.3977 15.5957 58.3223 14.9418 58.1746 14.4499L57.5925 12.7386C57.0261 11.2158 56.3052 9.77609 55.5709 8.33103C57.0331 9.06238 58.1915 10.0282 59.2997 11.217C59.716 9.41364 60.3228 7.75241 61.1802 6.11666Z" fill="black"/>
</svg>
