<svg width="127" height="69" viewBox="0 0 127 69" fill="none" xmlns="http://www.w3.org/2000/svg">
<rect width="126.5" height="69" rx="4" fill="white"/>
<path d="M29.1034 39.7966C26.1725 39.7966 23.8769 37.5633 23.8769 34.5394C23.8769 31.5154 26.1725 29.2231 29.1034 29.2231C32.0343 29.2231 34.33 31.5154 34.33 34.5394C34.33 37.5633 32.0343 39.7966 29.1034 39.7966ZM29.1034 26.6933C24.5943 26.6933 21.069 30.1715 21.069 34.5394C21.069 38.8874 24.5943 42.3067 29.1034 42.3067C33.6126 42.3067 37.1379 38.8874 37.1379 34.5394C37.1379 30.1715 33.6126 26.6933 29.1034 26.6933Z" fill="#2B2B2A"/>
<path d="M63.6517 39.7966C60.7208 39.7966 58.4252 37.5633 58.4252 34.5394C58.4252 31.5154 60.7208 29.2231 63.6517 29.2231C66.5826 29.2231 68.8782 31.5154 68.8782 34.5394C68.8782 37.5633 66.5826 39.7966 63.6517 39.7966ZM63.6517 26.6933C59.1425 26.6933 55.6172 30.1715 55.6172 34.5394C55.6172 38.8874 59.1425 42.3067 63.6517 42.3067C68.1609 42.3067 71.6862 38.8874 71.6862 34.5394C71.6862 30.1715 68.1609 26.6933 63.6517 26.6933Z" fill="#2B2B2A"/>
<path d="M95.7897 39.7966C92.8587 39.7966 90.5632 37.5633 90.5632 34.5394C90.5632 31.5154 92.8587 29.2231 95.7897 29.2231C98.7206 29.2231 101.016 31.5154 101.016 34.5394C101.016 37.5633 98.7206 39.7966 95.7897 39.7966ZM95.7897 26.6933C91.2807 26.6933 87.7552 30.1715 87.7552 34.5394C87.7552 38.8874 91.2807 42.3067 95.7897 42.3067C100.299 42.3067 103.824 38.8874 103.824 34.5394C103.824 30.1715 100.299 26.6933 95.7897 26.6933Z" fill="#2B2B2A"/>
<path d="M77.831 26.6935H74.9V42.3067H86.1483V39.7798H77.831V26.6935Z" fill="#2B2B2A"/>
<path d="M118.445 26.6935L113.455 37.7254L108.486 26.6935H105.431L112.539 42.3067H114.392L121.5 26.6935H118.445Z" fill="#2B2B2A"/>
<path d="M53.4821 26.6935H49.8336L43.2184 33.3759V26.6935H40.3517V42.3067H43.2184V35.3655L50.0898 42.3067H54.0103L45.8211 34.2399L53.4821 26.6935Z" fill="#2B2B2A"/>
<path d="M5 37.7738C5.18182 39.7473 6.85211 42.3067 11.7084 42.3067C15.4021 42.3067 17.8552 40.4643 17.8552 37.596C17.8552 34.6466 15.4295 33.6031 13.2373 33.3297C12.3123 33.2144 11.208 33.0785 10.3667 32.9742C8.87447 32.7892 8.18262 32.2137 8.18262 31.1966C8.18262 29.88 9.58889 29.0338 11.3028 29.0338C13.0532 29.0338 14.2118 29.6244 14.7349 30.9892H17.5432C17.2122 29.2068 15.7214 26.6933 11.3028 26.6933C7.5814 26.6933 5.31198 28.9255 5.31198 31.3744C5.31198 34.507 7.99035 35.2576 10.1872 35.537C11.0329 35.6445 11.8911 35.7552 12.6445 35.8481C14.1369 36.0318 14.9846 36.6772 14.9846 37.7738C14.9846 38.8703 14.0978 39.9365 11.646 39.9365C9.27089 39.9365 8.04435 38.878 7.83931 37.7738H5Z" fill="#2B2B2A"/>
</svg>
