<svg width="127" height="69" viewBox="0 0 127 69" fill="none" xmlns="http://www.w3.org/2000/svg">
<rect width="126.5" height="69" rx="4" fill="white"/>
<path d="M105.319 63.2915C105.213 63.2915 105.135 63.2106 105.135 63.1297L102.087 19.6961C102.087 19.5883 102.166 19.5074 102.271 19.5074H121.316C121.421 19.5074 121.5 19.5883 121.5 19.6961L121.237 63.1297C121.237 63.2375 121.158 63.3184 121.053 63.3184H105.292L105.319 63.2915Z" fill="black"/>
<path d="M108.13 6.13691C108.182 5.89427 108.419 5.70554 108.655 5.70554C109.889 5.70554 113.593 5.65162 116.43 5.70554C116.746 5.70554 116.982 5.97515 116.982 6.27172C116.982 9.18347 116.982 12.0952 116.982 15.0339C116.982 15.3575 116.746 15.6271 116.43 15.6271C113.383 15.654 110.336 15.5731 107.263 15.6271C106.921 15.6271 106.659 15.3575 106.685 15.007C106.895 12.0952 107.342 9.18347 108.13 6.16388V6.13691Z" fill="black"/>
<path d="M75.1397 46.7148C75.2185 46.9844 75.6125 46.9844 75.6913 46.7148L83.23 19.4845H100.357L92.1615 46.4721C89.5874 54.9916 86.7767 63.2955 75.4024 63.2955C64.0282 63.2955 52.2337 47.6314 63.7655 33.9893H49.6332V19.4845H67.5219L75.1134 46.7148H75.1397Z" fill="black"/>
<path d="M30.0074 44.2883C30.848 43.4256 31.4522 42.2662 31.4522 40.2442V19.4845H47.6597V41.9966C47.6597 51.9181 42.8001 63.2955 26.3298 63.2955C9.85963 63.2955 5 51.9181 5 41.9966V19.4845H21.4965V40.2442C21.4965 42.2662 22.0744 43.7491 22.6786 44.2883C24.6487 46.6339 28.0636 46.6339 30.0337 44.2883H30.0074Z" fill="black"/>
</svg>
